<svg width="83" height="83" viewBox="0 0 83 83" fill="none" xmlns="http://www.w3.org/2000/svg">
<g filter="url(#filter0_d_14_11)">
<rect x="4" y="4" width="75" height="75" rx="13" fill="#192F4E" shape-rendering="crispEdges"/>
<g filter="url(#filter1_d_14_11)">
<path d="M21 26.5C20.1716 26.5 19.5 27.1716 19.5 28C19.5 28.8284 20.1716 29.5 21 29.5V26.5ZM21 55L36 63.6603V46.3397L21 55ZM21 28C21 28 21 29.5 21 29.5C21 29.5 21 29.5 21 29.5C21 29.5 21 29.5 21 29.5C21 29.5 21 29.5 21 29.5C21 29.5 21 29.5 21 29.5C21 29.5 21 29.5 21 29.5C21 29.5 21.0001 29.5 21.0001 29.5C21.0001 29.5 21.0001 29.5 21.0001 29.5C21.0001 29.5 21.0001 29.5 21.0001 29.5C21.0001 29.5 21.0002 29.5 21.0002 29.5C21.0002 29.5 21.0002 29.5 21.0002 29.5C21.0003 29.5 21.0003 29.5 21.0003 29.5C21.0003 29.5 21.0004 29.5 21.0004 29.5C21.0004 29.5 21.0004 29.5 21.0005 29.5C21.0005 29.5 21.0005 29.5 21.0006 29.5C21.0006 29.5 21.0007 29.5 21.0007 29.5C21.0008 29.5 21.0008 29.5 21.0009 29.5C21.0009 29.5 21.001 29.5 21.001 29.5C21.0011 29.5 21.0011 29.5 21.0012 29.5C21.0013 29.5 21.0013 29.5 21.0014 29.5C21.0015 29.5 21.0015 29.5 21.0016 29.5C21.0017 29.5 21.0018 29.5 21.0019 29.5C21.0019 29.5 21.002 29.5 21.0021 29.5C21.0022 29.5 21.0023 29.5 21.0024 29.5C21.0025 29.5 21.0026 29.5 21.0027 29.5C21.0028 29.5 21.003 29.5 21.0031 29.5C21.0032 29.5 21.0033 29.5 21.0034 29.5C21.0036 29.5 21.0037 29.5 21.0038 29.5C21.004 29.5 21.0041 29.5 21.0043 29.5C21.0044 29.5 21.0046 29.5 21.0047 29.5C21.0049 29.5 21.005 29.5 21.0052 29.5C21.0054 29.5 21.0055 29.5 21.0057 29.5C21.0059 29.5 21.0061 29.5 21.0063 29.5C21.0065 29.5 21.0067 29.5 21.0069 29.5C21.0071 29.5 21.0073 29.5 21.0075 29.5C21.0077 29.5 21.0079 29.5 21.0081 29.5C21.0084 29.5 21.0086 29.5 21.0088 29.5C21.0091 29.5 21.0093 29.5 21.0096 29.5C21.0098 29.5 21.0101 29.5 21.0104 29.5C21.0106 29.5 21.0109 29.5 21.0112 29.5C21.0115 29.5 21.0117 29.5 21.012 29.5C21.0123 29.5 21.0126 29.5 21.0129 29.5C21.0132 29.5 21.0136 29.5 21.0139 29.5C21.0142 29.5 21.0145 29.5 21.0149 29.5C21.0152 29.5 21.0156 29.5 21.0159 29.5C21.0163 29.5 21.0166 29.5 21.017 29.5C21.0174 29.5 21.0177 29.5 21.0181 29.5C21.0185 29.5 21.0189 29.5 21.0193 29.5C21.0197 29.5 21.0201 29.5 21.0205 29.5C21.021 29.5 21.0214 29.5 21.0218 29.5C21.0223 29.5 21.0227 29.5 21.0232 29.5C21.0236 29.5 21.0241 29.5 21.0245 29.5C21.025 29.5 21.0255 29.5 21.026 29.5C21.0265 29.5 21.027 29.5 21.0275 29.5C21.028 29.5 21.0285 29.5 21.029 29.5C21.0296 29.5 21.0301 29.5 21.0307 29.5C21.0312 29.5 21.0318 29.5 21.0323 29.5C21.0329 29.5 21.0335 29.5 21.0341 29.5C21.0346 29.5 21.0352 29.5 21.0359 29.5C21.0365 29.5 21.0371 29.5 21.0377 29.5C21.0383 29.5 21.039 29.5 21.0396 29.5C21.0403 29.5 21.0409 29.5 21.0416 29.5C21.0423 29.5 21.043 29.5 21.0436 29.5C21.0443 29.5 21.045 29.5 21.0458 29.5C21.0465 29.5 21.0472 29.5 21.0479 29.5C21.0487 29.5 21.0494 29.5 21.0502 29.5C21.0509 29.5 21.0517 29.5 21.0525 29.5C21.0533 29.5 21.0541 29.5 21.0549 29.5C21.0557 29.5 21.0565 29.5 21.0573 29.5C21.0582 29.5 21.059 29.5 21.0599 29.5C21.0607 29.5 21.0616 29.5 21.0625 29.5C21.0634 29.5 21.0642 29.5 21.0652 29.5C21.0661 29.5 21.067 29.5 21.0679 29.5C21.0688 29.5 21.0698 29.5 21.0707 29.5C21.0717 29.5 21.0727 29.5 21.0736 29.5C21.0746 29.5 21.0756 29.5 21.0766 29.5C21.0776 29.5 21.0787 29.5 21.0797 29.5C21.0807 29.5 21.0818 29.5 21.0828 29.5C21.0839 29.5 21.085 29.5 21.0861 29.5C21.0872 29.5 21.0883 29.5 21.0894 29.5C21.0905 29.5 21.0916 29.5 21.0928 29.5C21.0939 29.5 21.0951 29.5 21.0962 29.5C21.0974 29.5 21.0986 29.5 21.0998 29.5C21.101 29.5 21.1022 29.5 21.1035 29.5C21.1047 29.5 21.1059 29.5 21.1072 29.5C21.1085 29.5 21.1097 29.5 21.111 29.5C21.1123 29.5 21.1136 29.5 21.1149 29.5C21.1163 29.5 21.1176 29.5 21.119 29.5C21.1203 29.5 21.1217 29.5 21.1231 29.5C21.1244 29.5 21.1258 29.5 21.1273 29.5C21.1287 29.5 21.1301 29.5 21.1315 29.5C21.133 29.5 21.1344 29.5 21.1359 29.5C21.1374 29.5 21.1389 29.5 21.1404 29.5C21.1419 29.5 21.1434 29.5 21.145 29.5C21.1465 29.5 21.1481 29.5 21.1497 29.5C21.1512 29.5 21.1528 29.5 21.1544 29.5C21.156 29.5 21.1577 29.5 21.1593 29.5C21.161 29.5 21.1626 29.5 21.1643 29.5C21.166 29.5 21.1677 29.5 21.1694 29.5C21.1711 29.5 21.1728 29.5 21.1746 29.5C21.1763 29.5 21.1781 29.5 21.1798 29.5C21.1816 29.5 21.1834 29.5 21.1852 29.5C21.1871 29.5 21.1889 29.5 21.1907 29.5C21.1926 29.5 21.1945 29.5 21.1964 29.5C21.1982 29.5 21.2001 29.5 21.2021 29.5C21.204 29.5 21.2059 29.5 21.2079 29.5C21.2099 29.5 21.2118 29.5 21.2138 29.5C21.2158 29.5 21.2179 29.5 21.2199 29.5C21.2219 29.5 21.224 29.5 21.2261 29.5C21.2281 29.5 21.2302 29.5 21.2323 29.5C21.2344 29.5 21.2366 29.5 21.2387 29.5C21.2409 29.5 21.243 29.5 21.2452 29.5C21.2474 29.5 21.2496 29.5 21.2519 29.5C21.2541 29.5 21.2563 29.5 21.2586 29.5C21.2609 29.5 21.2632 29.5 21.2655 29.5C21.2678 29.5 21.2701 29.5 21.2725 29.5C21.2748 29.5 21.2772 29.5 21.2796 29.5C21.282 29.5 21.2844 29.5 21.2868 29.5C21.2892 29.5 21.2917 29.5 21.2942 29.5C21.2966 29.5 21.2991 29.5 21.3016 29.5C21.3041 29.5 21.3067 29.5 21.3092 29.5C21.3118 29.5 21.3144 29.5 21.317 29.5C21.3196 29.5 21.3222 29.5 21.3248 29.5C21.3275 29.5 21.3301 29.5 21.3328 29.5C21.3355 29.5 21.3382 29.5 21.3409 29.5C21.3437 29.5 21.3464 29.5 21.3492 29.5C21.3519 29.5 21.3547 29.5 21.3576 29.5C21.3604 29.5 21.3632 29.5 21.3661 29.5C21.3689 29.5 21.3718 29.5 21.3747 29.5C21.3776 29.5 21.3806 29.5 21.3835 29.5C21.3865 29.5 21.3894 29.5 21.3924 29.5C21.3954 29.5 21.3984 29.5 21.4015 29.5C21.4045 29.5 21.4076 29.5 21.4107 29.5C21.4138 29.5 21.4169 29.5 21.42 29.5C21.4231 29.5 21.4263 29.5 21.4295 29.5C21.4327 29.5 21.4359 29.5 21.4391 29.5C21.4423 29.5 21.4456 29.5 21.4488 29.5C21.4521 29.5 21.4554 29.5 21.4587 29.5C21.4621 29.5 21.4654 29.5 21.4688 29.5C21.4722 29.5 21.4756 29.5 21.479 29.5C21.4824 29.5 21.4858 29.5 21.4893 29.5C21.4928 29.5 21.4963 29.5 21.4998 29.5C21.5033 29.5 21.5069 29.5 21.5104 29.5C21.514 29.5 21.5176 29.5 21.5212 29.5C21.5248 29.5 21.5285 29.5 21.5322 29.5C21.5358 29.5 21.5395 29.5 21.5432 29.5C21.547 29.5 21.5507 29.5 21.5545 29.5C21.5583 29.5 21.5621 29.5 21.5659 29.5C21.5697 29.5 21.5735 29.5 21.5774 29.5C21.5813 29.5 21.5852 29.5 21.5891 29.5C21.5931 29.5 21.597 29.5 21.601 29.5C21.605 29.5 21.609 29.5 21.613 29.5C21.617 29.5 21.6211 29.5 21.6252 29.5C21.6293 29.5 21.6334 29.5 21.6375 29.5C21.6417 29.5 21.6458 29.5 21.65 29.5C21.6542 29.5 21.6584 29.5 21.6627 29.5C21.6669 29.5 21.6712 29.5 21.6755 29.5C21.6798 29.5 21.6841 29.5 21.6885 29.5C21.6929 29.5 21.6972 29.5 21.7017 29.5C21.7061 29.5 21.7105 29.5 21.715 29.5C21.7195 29.5 21.7239 29.5 21.7285 29.5C21.733 29.5 21.7376 29.5 21.7421 29.5C21.7467 29.5 21.7513 29.5 21.756 29.5C21.7606 29.5 21.7653 29.5 21.77 29.5C21.7747 29.5 21.7794 29.5 21.7841 29.5C21.7889 29.5 21.7937 29.5 21.7985 29.5C21.8033 29.5 21.8081 29.5 21.813 29.5C21.8179 29.5 21.8228 29.5 21.8277 29.5C21.8326 29.5 21.8376 29.5 21.8426 29.5C21.8475 29.5 21.8526 29.5 21.8576 29.5C21.8626 29.5 21.8677 29.5 21.8728 29.5C21.8779 29.5 21.8831 29.5 21.8882 29.5C21.8934 29.5 21.8986 29.5 21.9038 29.5C21.909 29.5 21.9143 29.5 21.9196 29.5C21.9249 29.5 21.9302 29.5 21.9355 29.5C21.9409 29.5 21.9462 29.5 21.9516 29.5C21.957 29.5 21.9625 29.5 21.968 29.5C21.9734 29.5 21.9789 29.5 21.9845 29.5C21.99 29.5 21.9955 29.5 22.0011 29.5C22.0067 29.5 22.0124 29.5 22.018 29.5C22.0237 29.5 22.0294 29.5 22.0351 29.5C22.0408 29.5 22.0465 29.5 22.0523 29.5C22.0581 29.5 22.0639 29.5 22.0698 29.5C22.0756 29.5 22.0815 29.5 22.0874 29.5C22.0933 29.5 22.0993 29.5 22.1052 29.5C22.1112 29.5 22.1172 29.5 22.1232 29.5C22.1293 29.5 22.1354 29.5 22.1415 29.5C22.1476 29.5 22.1537 29.5 22.1599 29.5C22.166 29.5 22.1722 29.5 22.1785 29.5C22.1847 29.5 22.191 29.5 22.1973 29.5C22.2036 29.5 22.2099 29.5 22.2163 29.5C22.2227 29.5 22.2291 29.5 22.2355 29.5C22.2419 29.5 22.2484 29.5 22.2549 29.5C22.2614 29.5 22.2679 29.5 22.2745 29.5C22.2811 29.5 22.2877 29.5 22.2943 29.5C22.301 29.5 22.3076 29.5 22.3143 29.5C22.321 29.5 22.3278 29.5 22.3345 29.5C22.3413 29.5 22.3481 29.5 22.355 29.5C22.3618 29.5 22.3687 29.5 22.3756 29.5C22.3825 29.5 22.3895 29.5 22.3965 29.5C22.4034 29.5 22.4105 29.5 22.4175 29.5C22.4246 29.5 22.4316 29.5 22.4388 29.5C22.4459 29.5 22.453 29.5 22.4602 29.5C22.4674 29.5 22.4747 29.5 22.4819 29.5C22.4892 29.5 22.4965 29.5 22.5038 29.5C22.5112 29.5 22.5185 29.5 22.5259 29.5C22.5333 29.5 22.5408 29.5 22.5483 29.5C22.5558 29.5 22.5633 29.5 22.5708 29.5C22.5784 29.5 22.586 29.5 22.5936 29.5C22.6012 29.5 22.6089 29.5 22.6166 29.5C22.6243 29.5 22.632 29.5 22.6398 29.5C22.6475 29.5 22.6554 29.5 22.6632 29.5C22.671 29.5 22.6789 29.5 22.6868 29.5C22.6948 29.5 22.7027 29.5 22.7107 29.5C22.7187 29.5 22.7267 29.5 22.7348 29.5C22.7429 29.5 22.751 29.5 22.7591 29.5C22.7673 29.5 22.7755 29.5 22.7837 29.5C22.7919 29.5 22.8001 29.5 22.8084 29.5C22.8167 29.5 22.8251 29.5 22.8334 29.5C22.8418 29.5 22.8502 29.5 22.8587 29.5C22.8671 29.5 22.8756 29.5 22.8841 29.5C22.8927 29.5 22.9012 29.5 22.9098 29.5C22.9184 29.5 22.9271 29.5 22.9358 29.5C22.9444 29.5 22.9532 29.5 22.9619 29.5C22.9707 29.5 22.9795 29.5 22.9883 29.5C22.9971 29.5 23.006 29.5 23.0149 29.5C23.0239 29.5 23.0328 29.5 23.0418 29.5C23.0508 29.5 23.0598 29.5 23.0689 29.5C23.078 29.5 23.0871 29.5 23.0962 29.5C23.1054 29.5 23.1146 29.5 23.1238 29.5C23.1331 29.5 23.1423 29.5 23.1517 29.5C23.161 29.5 23.1703 29.5 23.1797 29.5C23.1891 29.5 23.1985 29.5 23.208 29.5C23.2175 29.5 23.227 29.5 23.2366 29.5C23.2461 29.5 23.2557 29.5 23.2654 29.5C23.275 29.5 23.2847 29.5 23.2944 29.5C23.3041 29.5 23.3139 29.5 23.3237 29.5C23.3335 29.5 23.3434 29.5 23.3532 29.5C23.3631 29.5 23.3731 29.5 23.383 29.5C23.393 29.5 23.403 29.5 23.4131 29.5C23.4231 29.5 23.4332 29.5 23.4434 29.5C23.4535 29.5 23.4637 29.5 23.4739 29.5C23.4841 29.5 23.4944 29.5 23.5047 29.5C23.515 29.5 23.5254 29.5 23.5357 29.5C23.5461 29.5 23.5566 29.5 23.567 29.5C23.5775 29.5 23.588 29.5 23.5986 29.5C23.6092 29.5 23.6198 29.5 23.6304 29.5C23.6411 29.5 23.6518 29.5 23.6625 29.5C23.6732 29.5 23.684 29.5 23.6948 29.5C23.7057 29.5 23.7165 29.5 23.7274 29.5C23.7384 29.5 23.7493 29.5 23.7603 29.5C23.7713 29.5 23.7823 29.5 23.7934 29.5C23.8045 29.5 23.8156 29.5 23.8268 29.5C23.838 29.5 23.8492 29.5 23.8605 29.5C23.8717 29.5 23.883 29.5 23.8944 29.5C23.9057 29.5 23.9171 29.5 23.9286 29.5C23.94 29.5 23.9515 29.5 23.963 29.5C23.9746 29.5 23.9861 29.5 23.9977 29.5C24.0094 29.5 24.021 29.5 24.0327 29.5C24.0444 29.5 24.0562 29.5 24.068 29.5C24.0798 29.5 24.0916 29.5 24.1035 29.5C24.1154 29.5 24.1274 29.5 24.1394 29.5C24.1513 29.5 24.1634 29.5 24.1754 29.5C24.1875 29.5 24.1996 29.5 24.2118 29.5C24.224 29.5 24.2362 29.5 24.2484 29.5C24.2607 29.5 24.273 29.5 24.2853 29.5C24.2977 29.5 24.3101 29.5 24.3225 29.5C24.335 29.5 24.3475 29.5 24.36 29.5C24.3725 29.5 24.3851 29.5 24.3978 29.5C24.4104 29.5 24.4231 29.5 24.4358 29.5C24.4485 29.5 24.4613 29.5 24.4741 29.5C24.4869 29.5 24.4998 29.5 24.5127 29.5C24.5256 29.5 24.5386 29.5 24.5516 29.5C24.5646 29.5 24.5777 29.5 24.5908 29.5C24.6039 29.5 24.617 29.5 24.6302 29.5C24.6434 29.5 24.6567 29.5 24.67 29.5C24.6833 29.5 24.6966 29.5 24.71 29.5C24.7234 29.5 24.7368 29.5 24.7503 29.5C24.7638 29.5 24.7774 29.5 24.791 29.5C24.8045 29.5 24.8182 29.5 24.8319 29.5C24.8455 29.5 24.8593 29.5 24.8731 29.5C24.8868 29.5 24.9007 29.5 24.9146 29.5C24.9284 29.5 24.9424 29.5 24.9564 29.5C24.9703 29.5 24.9844 29.5 24.9984 29.5C25.0125 29.5 25.0267 29.5 25.0408 29.5C25.055 29.5 25.0692 29.5 25.0835 29.5C25.0978 29.5 25.1121 29.5 25.1265 29.5C25.1409 29.5 25.1553 29.5 25.1698 29.5C25.1843 29.5 25.1988 29.5 25.2134 29.5C25.2279 29.5 25.2426 29.5 25.2573 29.5C25.2719 29.5 25.2867 29.5 25.3015 29.5C25.3162 29.5 25.3311 29.5 25.3459 29.5C25.3608 29.5 25.3758 29.5 25.3908 29.5C25.4057 29.5 25.4208 29.5 25.4359 29.5C25.4509 29.5 25.4661 29.5 25.4813 29.5C25.4965 29.5 25.5117 29.5 25.527 29.5C25.5423 29.5 25.5576 29.5 25.573 29.5C25.5884 29.5 25.6039 29.5 25.6194 29.5C25.6349 29.5 25.6504 29.5 25.6661 29.5C25.6817 29.5 25.6973 29.5 25.713 29.5C25.7287 29.5 25.7445 29.5 25.7603 29.5C25.7761 29.5 25.792 29.5 25.8079 29.5C25.8238 29.5 25.8398 29.5 25.8558 29.5C25.8719 29.5 25.8879 29.5 25.9041 29.5C25.9202 29.5 25.9364 29.5 25.9526 29.5C25.9689 29.5 25.9852 29.5 26.0015 29.5C26.0178 29.5 26.0342 29.5 26.0507 29.5C26.0671 29.5 26.0837 29.5 26.1002 29.5C26.1168 29.5 26.1334 29.5 26.15 29.5C26.1667 29.5 26.1834 29.5 26.2002 29.5C26.217 29.5 26.2338 29.5 26.2507 29.5C26.2676 29.5 26.2845 29.5 26.3015 29.5C26.3185 29.5 26.3356 29.5 26.3527 29.5C26.3698 29.5 26.3869 29.5 26.4041 29.5C26.4213 29.5 26.4386 29.5 26.4559 29.5C26.4732 29.5 26.4906 29.5 26.508 29.5C26.5255 29.5 26.543 29.5 26.5605 29.5C26.578 29.5 26.5956 29.5 26.6133 29.5C26.6309 29.5 26.6486 29.5 26.6664 29.5C26.6842 29.5 26.702 29.5 26.7199 29.5C26.7377 29.5 26.7557 29.5 26.7737 29.5C26.7916 29.5 26.8097 29.5 26.8278 29.5C26.8459 29.5 26.864 29.5 26.8823 29.5C26.9005 29.5 26.9187 29.5 26.9371 29.5C26.9554 29.5 26.9738 29.5 26.9922 29.5C27.0106 29.5 27.0291 29.5 27.0477 29.5C27.0662 29.5 27.0848 29.5 27.1035 29.5C27.1222 29.5 27.1409 29.5 27.1597 29.5C27.1784 29.5 27.1973 29.5 27.2162 29.5C27.2351 29.5 27.254 29.5 27.273 29.5C27.292 29.5 27.3111 29.5 27.3302 29.5C27.3494 29.5 27.3685 29.5 27.3878 29.5C27.407 29.5 27.4263 29.5 27.4457 29.5C27.465 29.5 27.4844 29.5 27.5039 29.5C27.5234 29.5 27.5429 29.5 27.5625 29.5C27.5821 29.5 27.6018 29.5 27.6215 29.5C27.6412 29.5 27.6609 29.5 27.6808 29.5C27.7006 29.5 27.7205 29.5 27.7404 29.5C27.7603 29.5 27.7803 29.5 27.8004 29.5C27.8205 29.5 27.8406 29.5 27.8608 29.5C27.8809 29.5 27.9012 29.5 27.9215 29.5C27.9418 29.5 27.9621 29.5 27.9826 29.5C28.003 29.5 28.0234 29.5 28.044 29.5C28.0645 29.5 28.0851 29.5 28.1058 29.5C28.1264 29.5 28.1471 29.5 28.1679 29.5C28.1887 29.5 28.2095 29.5 28.2304 29.5C28.2513 29.5 28.2723 29.5 28.2933 29.5C28.3143 29.5 28.3354 29.5 28.3565 29.5C28.3777 29.5 28.3989 29.5 28.4201 29.5C28.4414 29.5 28.4627 29.5 28.4841 29.5C28.5055 29.5 28.5269 29.5 28.5484 29.5C28.5699 29.5 28.5915 29.5 28.6131 29.5C28.6348 29.5 28.6565 29.5 28.6782 29.5C28.7 29.5 28.7218 29.5 28.7437 29.5C28.7655 29.5 28.7875 29.5 28.8095 29.5C28.8315 29.5 28.8535 29.5 28.8756 29.5C28.8978 29.5 28.9199 29.5 28.9422 29.5C28.9644 29.5 28.9868 29.5 29.0091 29.5C29.0315 29.5 29.0539 29.5 29.0764 29.5C29.0989 29.5 29.1215 29.5 29.1441 29.5C29.1667 29.5 29.1894 29.5 29.2122 29.5C29.2349 29.5 29.2577 29.5 29.2806 29.5C29.3035 29.5 29.3264 29.5 29.3494 29.5C29.3724 29.5 29.3955 29.5 29.4186 29.5C29.4417 29.5 29.4649 29.5 29.4882 29.5C29.5114 29.5 29.5348 29.5 29.5581 29.5C29.5815 29.5 29.605 29.5 29.6285 29.5C29.652 29.5 29.6756 29.5 29.6992 29.5C29.7228 29.5 29.7465 29.5 29.7703 29.5C29.7941 29.5 29.8179 29.5 29.8418 29.5C29.8657 29.5 29.8897 29.5 29.9137 29.5C29.9377 29.5 29.9618 29.5 29.986 29.5C30.0101 29.5 30.0343 29.5 30.0586 29.5C30.0829 29.5 30.1073 29.5 30.1317 29.5C30.1561 29.5 30.1806 29.5 30.2051 29.5C30.2297 29.5 30.2543 29.5 30.279 29.5C30.3036 29.5 30.3284 29.5 30.3532 29.5C30.378 29.5 30.4029 29.5 30.4278 29.5C30.4528 29.5 30.4778 29.5 30.5028 29.5C30.5279 29.5 30.5531 29.5 30.5783 29.5C30.6035 29.5 30.6287 29.5 30.6541 29.5C30.6794 29.5 30.7048 29.5 30.7303 29.5C30.7558 29.5 30.7813 29.5 30.8069 29.5C30.8325 29.5 30.8582 29.5 30.8839 29.5C30.9097 29.5 30.9355 29.5 30.9613 29.5C30.9872 29.5 31.0132 29.5 31.0392 29.5C31.0652 29.5 31.0913 29.5 31.1174 29.5C31.1435 29.5 31.1698 29.5 31.196 29.5C31.2223 29.5 31.2487 29.5 31.2751 29.5C31.3015 29.5 31.328 29.5 31.3545 29.5C31.3811 29.5 31.4077 29.5 31.4344 29.5C31.4611 29.5 31.4878 29.5 31.5146 29.5C31.5415 29.5 31.5683 29.5 31.5953 29.5C31.6223 29.5 31.6493 29.5 31.6764 29.5C31.7035 29.5 31.7307 29.5 31.7579 29.5C31.7851 29.5 31.8124 29.5 31.8398 29.5C31.8672 29.5 31.8946 29.5 31.9221 29.5C31.9496 29.5 31.9772 29.5 32.0049 29.5C32.0325 29.5 32.0602 29.5 32.088 29.5C32.1158 29.5 32.1437 29.5 32.1716 29.5C32.1995 29.5 32.2275 29.5 32.2556 29.5C32.2837 29.5 32.3118 29.5 32.34 29.5C32.3682 29.5 32.3965 29.5 32.4249 29.5C32.4532 29.5 32.4816 29.5 32.5101 29.5C32.5386 29.5 32.5672 29.5 32.5958 29.5C32.6244 29.5 32.6531 29.5 32.6819 29.5C32.7107 29.5 32.7395 29.5 32.7684 29.5C32.7974 29.5 32.8263 29.5 32.8554 29.5C32.8845 29.5 32.9136 29.5 32.9428 29.5C32.972 29.5 33.0013 29.5 33.0306 29.5C33.0599 29.5 33.0894 29.5 33.1189 29.5C33.1483 29.5 33.1779 29.5 33.2075 29.5C33.2372 29.5 33.2669 29.5 33.2966 29.5C33.3264 29.5 33.3562 29.5 33.3862 29.5C33.4161 29.5 33.4461 29.5 33.4761 29.5C33.5062 29.5 33.5363 29.5 33.5665 29.5C33.5968 29.5 33.627 29.5 33.6574 29.5C33.6877 29.5 33.7182 29.5 33.7487 29.5C33.7792 29.5 33.8097 29.5 33.8404 29.5C33.871 29.5 33.9017 29.5 33.9325 29.5C33.9633 29.5 33.9942 29.5 34.0251 29.5C34.0561 29.5 34.0871 29.5 34.1182 29.5C34.1493 29.5 34.1804 29.5 34.2116 29.5C34.2429 29.5 34.2742 29.5 34.3056 29.5C34.337 29.5 34.3684 29.5 34.3999 29.5C34.4315 29.5 34.4631 29.5 34.4947 29.5C34.5264 29.5 34.5582 29.5 34.59 29.5C34.6218 29.5 34.6537 29.5 34.6857 29.5C34.7177 29.5 34.7497 29.5 34.7819 29.5C34.814 29.5 34.8462 29.5 34.8785 29.5C34.9107 29.5 34.9431 29.5 34.9755 29.5C35.0079 29.5 35.0404 29.5 35.073 29.5C35.1056 29.5 35.1382 29.5 35.171 29.5C35.2037 29.5 35.2365 29.5 35.2694 29.5C35.3023 29.5 35.3352 29.5 35.3682 29.5C35.4013 29.5 35.4344 29.5 35.4676 29.5C35.5007 29.5 35.534 29.5 35.5673 29.5C35.6007 29.5 35.6341 29.5 35.6676 29.5C35.7011 29.5 35.7346 29.5 35.7683 29.5C35.8019 29.5 35.8356 29.5 35.8694 29.5C35.9032 29.5 35.9371 29.5 35.971 29.5C36.005 29.5 36.039 29.5 36.0731 29.5C36.1072 29.5 36.1414 29.5 36.1756 29.5C36.2099 29.5 36.2442 29.5 36.2786 29.5C36.3131 29.5 36.3475 29.5 36.3821 29.5C36.4167 29.5 36.4513 29.5 36.486 29.5C36.5208 29.5 36.5556 29.5 36.5904 29.5C36.6253 29.5 36.6603 29.5 36.6953 29.5C36.7303 29.5 36.7655 29.5 36.8007 29.5C36.8358 29.5 36.8711 29.5 36.9065 29.5C36.9418 29.5 36.9772 29.5 37.0127 29.5C37.0482 29.5 37.0838 29.5 37.1195 29.5C37.1552 29.5 37.1909 29.5 37.2267 29.5C37.2625 29.5 37.2984 29.5 37.3344 29.5C37.3704 29.5 37.4064 29.5 37.4426 29.5C37.4787 29.5 37.5149 29.5 37.5512 29.5C37.5875 29.5 37.6239 29.5 37.6604 29.5C37.6968 29.5 37.7334 29.5 37.77 29.5C37.8066 29.5 37.8433 29.5 37.8801 29.5C37.9168 29.5 37.9537 29.5 37.9906 29.5C38.0276 29.5 38.0646 29.5 38.1017 29.5C38.1388 29.5 38.176 29.5 38.2132 29.5C38.2505 29.5 38.2878 29.5 38.3252 29.5C38.3626 29.5 38.4001 29.5 38.4377 29.5C38.4753 29.5 38.513 29.5 38.5507 29.5C38.5885 29.5 38.6263 29.5 38.6642 29.5C38.7021 29.5 38.7401 29.5 38.7782 29.5C38.8162 29.5 38.8544 29.5 38.8926 29.5C38.9308 29.5 38.9691 29.5 39.0075 29.5C39.0459 29.5 39.0844 29.5 39.123 29.5C39.1615 29.5 39.2002 29.5 39.2389 29.5C39.2776 29.5 39.3164 29.5 39.3553 29.5C39.3942 29.5 39.4332 29.5 39.4722 29.5C39.5113 29.5 39.5504 29.5 39.5896 29.5C39.6289 29.5 39.6682 29.5 39.7075 29.5C39.7469 29.5 39.7864 29.5 39.8259 29.5C39.8655 29.5 39.9051 29.5 39.9448 29.5C39.9846 29.5 40.0244 29.5 40.0642 29.5C40.1041 29.5 40.1441 29.5 40.1841 29.5C40.2242 29.5 40.2643 29.5 40.3045 29.5C40.3448 29.5 40.3851 29.5 40.4255 29.5C40.4658 29.5 40.5063 29.5 40.5469 29.5C40.5874 29.5 40.6281 29.5 40.6688 29.5C40.7095 29.5 40.7503 29.5 40.7912 29.5C40.8321 29.5 40.8731 29.5 40.9141 29.5C40.9552 29.5 40.9963 29.5 41.0376 29.5C41.0788 29.5 41.1201 29.5 41.1615 29.5C41.2029 29.5 41.2444 29.5 41.286 29.5C41.3275 29.5 41.3692 29.5 41.4109 29.5C41.4527 29.5 41.4945 29.5 41.5364 29.5C41.5783 29.5 41.6203 29.5 41.6624 29.5C41.7045 29.5 41.7466 29.5 41.7889 29.5C41.8311 29.5 41.8735 29.5 41.9159 29.5C41.9583 29.5 42.0008 29.5 42.0434 29.5C42.086 29.5 42.1287 29.5 42.1715 29.5C42.2143 29.5 42.2571 29.5 42.3001 29.5C42.343 29.5 42.386 29.5 42.4292 29.5C42.4723 29.5 42.5155 29.5 42.5588 29.5C42.6021 29.5 42.6454 29.5 42.6889 29.5C42.7324 29.5 42.7759 29.5 42.8196 29.5C42.8632 29.5 42.9069 29.5 42.9507 29.5C42.9946 29.5 43.0385 29.5 43.0824 29.5C43.1264 29.5 43.1705 29.5 43.2147 29.5C43.2588 29.5 43.3031 29.5 43.3474 29.5C43.3918 29.5 43.4362 29.5 43.4807 29.5C43.5252 29.5 43.5698 29.5 43.6145 29.5C43.6592 29.5 43.704 29.5 43.7489 29.5C43.7937 29.5 43.8387 29.5 43.8837 29.5C43.9288 29.5 43.9739 29.5 44.0192 29.5C44.0644 29.5 44.1097 29.5 44.1551 29.5C44.2005 29.5 44.246 29.5 44.2916 29.5C44.3371 29.5 44.3828 29.5 44.4286 29.5V26.5C44.3828 26.5 44.3371 26.5 44.2916 26.5C44.246 26.5 44.2005 26.5 44.1551 26.5C44.1097 26.5 44.0644 26.5 44.0192 26.5C43.9739 26.5 43.9288 26.5 43.8837 26.5C43.8387 26.5 43.7937 26.5 43.7489 26.5C43.704 26.5 43.6592 26.5 43.6145 26.5C43.5698 26.5 43.5252 26.5 43.4807 26.5C43.4362 26.5 43.3918 26.5 43.3474 26.5C43.3031 26.5 43.2588 26.5 43.2147 26.5C43.1705 26.5 43.1264 26.5 43.0824 26.5C43.0385 26.5 42.9946 26.5 42.9507 26.5C42.9069 26.5 42.8632 26.5 42.8196 26.5C42.7759 26.5 42.7324 26.5 42.6889 26.5C42.6454 26.5 42.6021 26.5 42.5588 26.5C42.5155 26.5 42.4723 26.5 42.4292 26.5C42.386 26.5 42.343 26.5 42.3001 26.5C42.2571 26.5 42.2143 26.5 42.1715 26.5C42.1287 26.5 42.086 26.5 42.0434 26.5C42.0008 26.5 41.9583 26.5 41.9159 26.5C41.8735 26.5 41.8311 26.5 41.7889 26.5C41.7466 26.5 41.7045 26.5 41.6624 26.5C41.6203 26.5 41.5783 26.5 41.5364 26.5C41.4945 26.5 41.4527 26.5 41.4109 26.5C41.3692 26.5 41.3275 26.5 41.286 26.5C41.2444 26.5 41.2029 26.5 41.1615 26.5C41.1201 26.5 41.0788 26.5 41.0376 26.5C40.9963 26.5 40.9552 26.5 40.9141 26.5C40.8731 26.5 40.8321 26.5 40.7912 26.5C40.7503 26.5 40.7095 26.5 40.6688 26.5C40.6281 26.5 40.5874 26.5 40.5469 26.5C40.5063 26.5 40.4658 26.5 40.4255 26.5C40.3851 26.5 40.3448 26.5 40.3045 26.5C40.2643 26.5 40.2242 26.5 40.1841 26.5C40.1441 26.5 40.1041 26.5 40.0642 26.5C40.0244 26.5 39.9846 26.5 39.9448 26.5C39.9051 26.5 39.8655 26.5 39.8259 26.5C39.7864 26.5 39.7469 26.5 39.7075 26.5C39.6682 26.5 39.6289 26.5 39.5896 26.5C39.5504 26.5 39.5113 26.5 39.4722 26.5C39.4332 26.5 39.3942 26.5 39.3553 26.5C39.3164 26.5 39.2776 26.5 39.2389 26.5C39.2002 26.5 39.1615 26.5 39.123 26.5C39.0844 26.5 39.0459 26.5 39.0075 26.5C38.9691 26.5 38.9308 26.5 38.8926 26.5C38.8544 26.5 38.8162 26.5 38.7782 26.5C38.7401 26.5 38.7021 26.5 38.6642 26.5C38.6263 26.5 38.5885 26.5 38.5507 26.5C38.513 26.5 38.4753 26.5 38.4377 26.5C38.4001 26.5 38.3626 26.5 38.3252 26.5C38.2878 26.5 38.2505 26.5 38.2132 26.5C38.176 26.5 38.1388 26.5 38.1017 26.5C38.0646 26.5 38.0276 26.5 37.9906 26.5C37.9537 26.5 37.9168 26.5 37.8801 26.5C37.8433 26.5 37.8066 26.5 37.77 26.5C37.7334 26.5 37.6968 26.5 37.6604 26.5C37.6239 26.5 37.5875 26.5 37.5512 26.5C37.5149 26.5 37.4787 26.5 37.4426 26.5C37.4064 26.5 37.3704 26.5 37.3344 26.5C37.2984 26.5 37.2625 26.5 37.2267 26.5C37.1909 26.5 37.1552 26.5 37.1195 26.5C37.0838 26.5 37.0482 26.5 37.0127 26.5C36.9772 26.5 36.9418 26.5 36.9065 26.5C36.8711 26.5 36.8358 26.5 36.8007 26.5C36.7655 26.5 36.7303 26.5 36.6953 26.5C36.6603 26.5 36.6253 26.5 36.5904 26.5C36.5556 26.5 36.5208 26.5 36.486 26.5C36.4513 26.5 36.4167 26.5 36.3821 26.5C36.3475 26.5 36.3131 26.5 36.2786 26.5C36.2442 26.5 36.2099 26.5 36.1756 26.5C36.1414 26.5 36.1072 26.5 36.0731 26.5C36.039 26.5 36.005 26.5 35.971 26.5C35.9371 26.5 35.9032 26.5 35.8694 26.5C35.8356 26.5 35.8019 26.5 35.7683 26.5C35.7346 26.5 35.7011 26.5 35.6676 26.5C35.6341 26.5 35.6007 26.5 35.5673 26.5C35.534 26.5 35.5007 26.5 35.4676 26.5C35.4344 26.5 35.4013 26.5 35.3682 26.5C35.3352 26.5 35.3023 26.5 35.2694 26.5C35.2365 26.5 35.2037 26.5 35.171 26.5C35.1382 26.5 35.1056 26.5 35.073 26.5C35.0404 26.5 35.0079 26.5 34.9755 26.5C34.9431 26.5 34.9107 26.5 34.8785 26.5C34.8462 26.5 34.814 26.5 34.7819 26.5C34.7497 26.5 34.7177 26.5 34.6857 26.5C34.6537 26.5 34.6218 26.5 34.59 26.5C34.5582 26.5 34.5264 26.5 34.4947 26.5C34.4631 26.5 34.4315 26.5 34.3999 26.5C34.3684 26.5 34.337 26.5 34.3056 26.5C34.2742 26.5 34.2429 26.5 34.2116 26.5C34.1804 26.5 34.1493 26.5 34.1182 26.5C34.0871 26.5 34.0561 26.5 34.0251 26.5C33.9942 26.5 33.9633 26.5 33.9325 26.5C33.9017 26.5 33.871 26.5 33.8404 26.5C33.8097 26.5 33.7792 26.5 33.7487 26.5C33.7182 26.5 33.6877 26.5 33.6574 26.5C33.627 26.5 33.5968 26.5 33.5665 26.5C33.5363 26.5 33.5062 26.5 33.4761 26.5C33.4461 26.5 33.4161 26.5 33.3862 26.5C33.3562 26.5 33.3264 26.5 33.2966 26.5C33.2669 26.5 33.2372 26.5 33.2075 26.5C33.1779 26.5 33.1483 26.5 33.1189 26.5C33.0894 26.5 33.0599 26.5 33.0306 26.5C33.0013 26.5 32.972 26.5 32.9428 26.5C32.9136 26.5 32.8845 26.5 32.8554 26.5C32.8263 26.5 32.7974 26.5 32.7684 26.5C32.7395 26.5 32.7107 26.5 32.6819 26.5C32.6531 26.5 32.6244 26.5 32.5958 26.5C32.5672 26.5 32.5386 26.5 32.5101 26.5C32.4816 26.5 32.4532 26.5 32.4249 26.5C32.3965 26.5 32.3682 26.5 32.34 26.5C32.3118 26.5 32.2837 26.5 32.2556 26.5C32.2275 26.5 32.1995 26.5 32.1716 26.5C32.1437 26.5 32.1158 26.5 32.088 26.5C32.0602 26.5 32.0325 26.5 32.0049 26.5C31.9772 26.5 31.9496 26.5 31.9221 26.5C31.8946 26.5 31.8672 26.5 31.8398 26.5C31.8124 26.5 31.7851 26.5 31.7579 26.5C31.7307 26.5 31.7035 26.5 31.6764 26.5C31.6493 26.5 31.6223 26.5 31.5953 26.5C31.5683 26.5 31.5415 26.5 31.5146 26.5C31.4878 26.5 31.4611 26.5 31.4344 26.5C31.4077 26.5 31.3811 26.5 31.3545 26.5C31.328 26.5 31.3015 26.5 31.2751 26.5C31.2487 26.5 31.2223 26.5 31.196 26.5C31.1698 26.5 31.1435 26.5 31.1174 26.5C31.0913 26.5 31.0652 26.5 31.0392 26.5C31.0132 26.5 30.9872 26.5 30.9613 26.5C30.9355 26.5 30.9097 26.5 30.8839 26.5C30.8582 26.5 30.8325 26.5 30.8069 26.5C30.7813 26.5 30.7558 26.5 30.7303 26.5C30.7048 26.5 30.6794 26.5 30.6541 26.5C30.6287 26.5 30.6035 26.5 30.5783 26.5C30.5531 26.5 30.5279 26.5 30.5028 26.5C30.4778 26.5 30.4528 26.5 30.4278 26.5C30.4029 26.5 30.378 26.5 30.3532 26.5C30.3284 26.5 30.3036 26.5 30.279 26.5C30.2543 26.5 30.2297 26.5 30.2051 26.5C30.1806 26.5 30.1561 26.5 30.1317 26.5C30.1073 26.5 30.0829 26.5 30.0586 26.5C30.0343 26.5 30.0101 26.5 29.986 26.5C29.9618 26.5 29.9377 26.5 29.9137 26.5C29.8897 26.5 29.8657 26.5 29.8418 26.5C29.8179 26.5 29.7941 26.5 29.7703 26.5C29.7465 26.5 29.7228 26.5 29.6992 26.5C29.6756 26.5 29.652 26.5 29.6285 26.5C29.605 26.5 29.5815 26.5 29.5581 26.5C29.5348 26.5 29.5114 26.5 29.4882 26.5C29.4649 26.5 29.4417 26.5 29.4186 26.5C29.3955 26.5 29.3724 26.5 29.3494 26.5C29.3264 26.5 29.3035 26.5 29.2806 26.5C29.2577 26.5 29.2349 26.5 29.2122 26.5C29.1894 26.5 29.1667 26.5 29.1441 26.5C29.1215 26.5 29.0989 26.5 29.0764 26.5C29.0539 26.5 29.0315 26.5 29.0091 26.5C28.9868 26.5 28.9644 26.5 28.9422 26.5C28.9199 26.5 28.8978 26.5 28.8756 26.5C28.8535 26.5 28.8315 26.5 28.8095 26.5C28.7875 26.5 28.7655 26.5 28.7437 26.5C28.7218 26.5 28.7 26.5 28.6782 26.5C28.6565 26.5 28.6348 26.5 28.6131 26.5C28.5915 26.5 28.5699 26.5 28.5484 26.5C28.5269 26.5 28.5055 26.5 28.4841 26.5C28.4627 26.5 28.4414 26.5 28.4201 26.5C28.3989 26.5 28.3777 26.5 28.3565 26.5C28.3354 26.5 28.3143 26.5 28.2933 26.5C28.2723 26.5 28.2513 26.5 28.2304 26.5C28.2095 26.5 28.1887 26.5 28.1679 26.5C28.1471 26.5 28.1264 26.5 28.1058 26.5C28.0851 26.5 28.0645 26.5 28.044 26.5C28.0234 26.5 28.003 26.5 27.9826 26.5C27.9621 26.5 27.9418 26.5 27.9215 26.5C27.9012 26.5 27.8809 26.5 27.8608 26.5C27.8406 26.5 27.8205 26.5 27.8004 26.5C27.7803 26.5 27.7603 26.5 27.7404 26.5C27.7205 26.5 27.7006 26.5 27.6808 26.5C27.6609 26.5 27.6412 26.5 27.6215 26.5C27.6018 26.5 27.5821 26.5 27.5625 26.5C27.5429 26.5 27.5234 26.5 27.5039 26.5C27.4844 26.5 27.465 26.5 27.4457 26.5C27.4263 26.5 27.407 26.5 27.3878 26.5C27.3685 26.5 27.3494 26.5 27.3302 26.5C27.3111 26.5 27.292 26.5 27.273 26.5C27.254 26.5 27.2351 26.5 27.2162 26.5C27.1973 26.5 27.1784 26.5 27.1597 26.5C27.1409 26.5 27.1222 26.5 27.1035 26.5C27.0848 26.5 27.0662 26.5 27.0477 26.5C27.0291 26.5 27.0106 26.5 26.9922 26.5C26.9738 26.5 26.9554 26.5 26.9371 26.5C26.9187 26.5 26.9005 26.5 26.8823 26.5C26.864 26.5 26.8459 26.5 26.8278 26.5C26.8097 26.5 26.7916 26.5 26.7737 26.5C26.7557 26.5 26.7377 26.5 26.7199 26.5C26.702 26.5 26.6842 26.5 26.6664 26.5C26.6486 26.5 26.6309 26.5 26.6133 26.5C26.5956 26.5 26.578 26.5 26.5605 26.5C26.543 26.5 26.5255 26.5 26.508 26.5C26.4906 26.5 26.4732 26.5 26.4559 26.5C26.4386 26.5 26.4213 26.5 26.4041 26.5C26.3869 26.5 26.3698 26.5 26.3527 26.5C26.3356 26.5 26.3185 26.5 26.3015 26.5C26.2845 26.5 26.2676 26.5 26.2507 26.5C26.2338 26.5 26.217 26.5 26.2002 26.5C26.1834 26.5 26.1667 26.5 26.15 26.5C26.1334 26.5 26.1168 26.5 26.1002 26.5C26.0837 26.5 26.0671 26.5 26.0507 26.5C26.0342 26.5 26.0178 26.5 26.0015 26.5C25.9852 26.5 25.9689 26.5 25.9526 26.5C25.9364 26.5 25.9202 26.5 25.9041 26.5C25.8879 26.5 25.8719 26.5 25.8558 26.5C25.8398 26.5 25.8238 26.5 25.8079 26.5C25.792 26.5 25.7761 26.5 25.7603 26.5C25.7445 26.5 25.7287 26.5 25.713 26.5C25.6973 26.5 25.6817 26.5 25.6661 26.5C25.6504 26.5 25.6349 26.5 25.6194 26.5C25.6039 26.5 25.5884 26.5 25.573 26.5C25.5576 26.5 25.5423 26.5 25.527 26.5C25.5117 26.5 25.4965 26.5 25.4813 26.5C25.4661 26.5 25.4509 26.5 25.4359 26.5C25.4208 26.5 25.4057 26.5 25.3908 26.5C25.3758 26.5 25.3608 26.5 25.3459 26.5C25.3311 26.5 25.3162 26.5 25.3015 26.5C25.2867 26.5 25.2719 26.5 25.2573 26.5C25.2426 26.5 25.2279 26.5 25.2134 26.5C25.1988 26.5 25.1843 26.5 25.1698 26.5C25.1553 26.5 25.1409 26.5 25.1265 26.5C25.1121 26.5 25.0978 26.5 25.0835 26.5C25.0692 26.5 25.055 26.5 25.0408 26.5C25.0267 26.5 25.0125 26.5 24.9984 26.5C24.9844 26.5 24.9703 26.5 24.9564 26.5C24.9424 26.5 24.9284 26.5 24.9146 26.5C24.9007 26.5 24.8868 26.5 24.8731 26.5C24.8593 26.5 24.8455 26.5 24.8319 26.5C24.8182 26.5 24.8045 26.5 24.791 26.5C24.7774 26.5 24.7638 26.5 24.7503 26.5C24.7368 26.5 24.7234 26.5 24.71 26.5C24.6966 26.5 24.6833 26.5 24.67 26.5C24.6567 26.5 24.6434 26.5 24.6302 26.5C24.617 26.5 24.6039 26.5 24.5908 26.5C24.5777 26.5 24.5646 26.5 24.5516 26.5C24.5386 26.5 24.5256 26.5 24.5127 26.5C24.4998 26.5 24.4869 26.5 24.4741 26.5C24.4613 26.5 24.4485 26.5 24.4358 26.5C24.4231 26.5 24.4104 26.5 24.3978 26.5C24.3851 26.5 24.3725 26.5 24.36 26.5C24.3475 26.5 24.335 26.5 24.3225 26.5C24.3101 26.5 24.2977 26.5 24.2853 26.5C24.273 26.5 24.2607 26.5 24.2484 26.5C24.2362 26.5 24.224 26.5 24.2118 26.5C24.1996 26.5 24.1875 26.5 24.1754 26.5C24.1634 26.5 24.1513 26.5 24.1394 26.5C24.1274 26.5 24.1154 26.5 24.1035 26.5C24.0916 26.5 24.0798 26.5 24.068 26.5C24.0562 26.5 24.0444 26.5 24.0327 26.5C24.021 26.5 24.0094 26.5 23.9977 26.5C23.9861 26.5 23.9746 26.5 23.963 26.5C23.9515 26.5 23.94 26.5 23.9286 26.5C23.9171 26.5 23.9057 26.5 23.8944 26.5C23.883 26.5 23.8717 26.5 23.8605 26.5C23.8492 26.5 23.838 26.5 23.8268 26.5C23.8156 26.5 23.8045 26.5 23.7934 26.5C23.7823 26.5 23.7713 26.5 23.7603 26.5C23.7493 26.5 23.7384 26.5 23.7274 26.5C23.7165 26.5 23.7057 26.5 23.6948 26.5C23.684 26.5 23.6732 26.5 23.6625 26.5C23.6518 26.5 23.6411 26.5 23.6304 26.5C23.6198 26.5 23.6092 26.5 23.5986 26.5C23.588 26.5 23.5775 26.5 23.567 26.5C23.5566 26.5 23.5461 26.5 23.5357 26.5C23.5254 26.5 23.515 26.5 23.5047 26.5C23.4944 26.5 23.4841 26.5 23.4739 26.5C23.4637 26.5 23.4535 26.5 23.4434 26.5C23.4332 26.5 23.4231 26.5 23.4131 26.5C23.403 26.5 23.393 26.5 23.383 26.5C23.3731 26.5 23.3631 26.5 23.3532 26.5C23.3434 26.5 23.3335 26.5 23.3237 26.5C23.3139 26.5 23.3041 26.5 23.2944 26.5C23.2847 26.5 23.275 26.5 23.2654 26.5C23.2557 26.5 23.2461 26.5 23.2366 26.5C23.227 26.5 23.2175 26.5 23.208 26.5C23.1985 26.5 23.1891 26.5 23.1797 26.5C23.1703 26.5 23.161 26.5 23.1517 26.5C23.1423 26.5 23.1331 26.5 23.1238 26.5C23.1146 26.5 23.1054 26.5 23.0962 26.5C23.0871 26.5 23.078 26.5 23.0689 26.5C23.0598 26.5 23.0508 26.5 23.0418 26.5C23.0328 26.5 23.0239 26.5 23.0149 26.5C23.006 26.5 22.9971 26.5 22.9883 26.5C22.9795 26.5 22.9707 26.5 22.9619 26.5C22.9532 26.5 22.9444 26.5 22.9358 26.5C22.9271 26.5 22.9184 26.5 22.9098 26.5C22.9012 26.5 22.8927 26.5 22.8841 26.5C22.8756 26.5 22.8671 26.5 22.8587 26.5C22.8502 26.5 22.8418 26.5 22.8334 26.5C22.8251 26.5 22.8167 26.5 22.8084 26.5C22.8001 26.5 22.7919 26.5 22.7837 26.5C22.7755 26.5 22.7673 26.5 22.7591 26.5C22.751 26.5 22.7429 26.5 22.7348 26.5C22.7267 26.5 22.7187 26.5 22.7107 26.5C22.7027 26.5 22.6948 26.5 22.6868 26.5C22.6789 26.5 22.671 26.5 22.6632 26.5C22.6554 26.5 22.6475 26.5 22.6398 26.5C22.632 26.5 22.6243 26.5 22.6166 26.5C22.6089 26.5 22.6012 26.5 22.5936 26.5C22.586 26.5 22.5784 26.5 22.5708 26.5C22.5633 26.5 22.5558 26.5 22.5483 26.5C22.5408 26.5 22.5333 26.5 22.5259 26.5C22.5185 26.5 22.5112 26.5 22.5038 26.5C22.4965 26.5 22.4892 26.5 22.4819 26.5C22.4747 26.5 22.4674 26.5 22.4602 26.5C22.453 26.5 22.4459 26.5 22.4388 26.5C22.4316 26.5 22.4246 26.5 22.4175 26.5C22.4105 26.5 22.4034 26.5 22.3965 26.5C22.3895 26.5 22.3825 26.5 22.3756 26.5C22.3687 26.5 22.3618 26.5 22.355 26.5C22.3481 26.5 22.3413 26.5 22.3345 26.5C22.3278 26.5 22.321 26.5 22.3143 26.5C22.3076 26.5 22.301 26.5 22.2943 26.5C22.2877 26.5 22.2811 26.5 22.2745 26.5C22.2679 26.5 22.2614 26.5 22.2549 26.5C22.2484 26.5 22.2419 26.5 22.2355 26.5C22.2291 26.5 22.2227 26.5 22.2163 26.5C22.2099 26.5 22.2036 26.5 22.1973 26.5C22.191 26.5 22.1847 26.5 22.1785 26.5C22.1722 26.5 22.166 26.5 22.1599 26.5C22.1537 26.5 22.1476 26.5 22.1415 26.5C22.1354 26.5 22.1293 26.5 22.1232 26.5C22.1172 26.5 22.1112 26.5 22.1052 26.5C22.0993 26.5 22.0933 26.5 22.0874 26.5C22.0815 26.5 22.0756 26.5 22.0698 26.5C22.0639 26.5 22.0581 26.5 22.0523 26.5C22.0465 26.5 22.0408 26.5 22.0351 26.5C22.0294 26.5 22.0237 26.5 22.018 26.5C22.0124 26.5 22.0067 26.5 22.0011 26.5C21.9955 26.5 21.99 26.5 21.9845 26.5C21.9789 26.5 21.9734 26.5 21.968 26.5C21.9625 26.5 21.957 26.5 21.9516 26.5C21.9462 26.5 21.9409 26.5 21.9355 26.5C21.9302 26.5 21.9249 26.5 21.9196 26.5C21.9143 26.5 21.909 26.5 21.9038 26.5C21.8986 26.5 21.8934 26.5 21.8882 26.5C21.8831 26.5 21.8779 26.5 21.8728 26.5C21.8677 26.5 21.8626 26.5 21.8576 26.5C21.8526 26.5 21.8475 26.5 21.8426 26.5C21.8376 26.5 21.8326 26.5 21.8277 26.5C21.8228 26.5 21.8179 26.5 21.813 26.5C21.8081 26.5 21.8033 26.5 21.7985 26.5C21.7937 26.5 21.7889 26.5 21.7841 26.5C21.7794 26.5 21.7747 26.5 21.77 26.5C21.7653 26.5 21.7606 26.5 21.756 26.5C21.7513 26.5 21.7467 26.5 21.7421 26.5C21.7376 26.5 21.733 26.5 21.7285 26.5C21.7239 26.5 21.7195 26.5 21.715 26.5C21.7105 26.5 21.7061 26.5 21.7017 26.5C21.6972 26.5 21.6929 26.5 21.6885 26.5C21.6841 26.5 21.6798 26.5 21.6755 26.5C21.6712 26.5 21.6669 26.5 21.6627 26.5C21.6584 26.5 21.6542 26.5 21.65 26.5C21.6458 26.5 21.6417 26.5 21.6375 26.5C21.6334 26.5 21.6293 26.5 21.6252 26.5C21.6211 26.5 21.617 26.5 21.613 26.5C21.609 26.5 21.605 26.5 21.601 26.5C21.597 26.5 21.5931 26.5 21.5891 26.5C21.5852 26.5 21.5813 26.5 21.5774 26.5C21.5735 26.5 21.5697 26.5 21.5659 26.5C21.5621 26.5 21.5583 26.5 21.5545 26.5C21.5507 26.5 21.547 26.5 21.5432 26.5C21.5395 26.5 21.5358 26.5 21.5322 26.5C21.5285 26.5 21.5248 26.5 21.5212 26.5C21.5176 26.5 21.514 26.5 21.5104 26.5C21.5069 26.5 21.5033 26.5 21.4998 26.5C21.4963 26.5 21.4928 26.5 21.4893 26.5C21.4858 26.5 21.4824 26.5 21.479 26.5C21.4756 26.5 21.4722 26.5 21.4688 26.5C21.4654 26.5 21.4621 26.5 21.4587 26.5C21.4554 26.5 21.4521 26.5 21.4488 26.5C21.4456 26.5 21.4423 26.5 21.4391 26.5C21.4359 26.5 21.4327 26.5 21.4295 26.5C21.4263 26.5 21.4231 26.5 21.42 26.5C21.4169 26.5 21.4138 26.5 21.4107 26.5C21.4076 26.5 21.4045 26.5 21.4015 26.5C21.3984 26.5 21.3954 26.5 21.3924 26.5C21.3894 26.5 21.3865 26.5 21.3835 26.5C21.3806 26.5 21.3776 26.5 21.3747 26.5C21.3718 26.5 21.3689 26.5 21.3661 26.5C21.3632 26.5 21.3604 26.5 21.3576 26.5C21.3547 26.5 21.3519 26.5 21.3492 26.5C21.3464 26.5 21.3437 26.5 21.3409 26.5C21.3382 26.5 21.3355 26.5 21.3328 26.5C21.3301 26.5 21.3275 26.5 21.3248 26.5C21.3222 26.5 21.3196 26.5 21.317 26.5C21.3144 26.5 21.3118 26.5 21.3092 26.5C21.3067 26.5 21.3041 26.5 21.3016 26.5C21.2991 26.5 21.2966 26.5 21.2942 26.5C21.2917 26.5 21.2892 26.5 21.2868 26.5C21.2844 26.5 21.282 26.5 21.2796 26.5C21.2772 26.5 21.2748 26.5 21.2725 26.5C21.2701 26.5 21.2678 26.5 21.2655 26.5C21.2632 26.5 21.2609 26.5 21.2586 26.5C21.2563 26.5 21.2541 26.5 21.2519 26.5C21.2496 26.5 21.2474 26.5 21.2452 26.5C21.243 26.5 21.2409 26.5 21.2387 26.5C21.2366 26.5 21.2344 26.5 21.2323 26.5C21.2302 26.5 21.2281 26.5 21.2261 26.5C21.224 26.5 21.2219 26.5 21.2199 26.5C21.2179 26.5 21.2158 26.5 21.2138 26.5C21.2118 26.5 21.2099 26.5 21.2079 26.5C21.2059 26.5 21.204 26.5 21.2021 26.5C21.2001 26.5 21.1982 26.5 21.1964 26.5C21.1945 26.5 21.1926 26.5 21.1907 26.5C21.1889 26.5 21.1871 26.5 21.1852 26.5C21.1834 26.5 21.1816 26.5 21.1798 26.5C21.1781 26.5 21.1763 26.5 21.1746 26.5C21.1728 26.5 21.1711 26.5 21.1694 26.5C21.1677 26.5 21.166 26.5 21.1643 26.5C21.1626 26.5 21.161 26.5 21.1593 26.5C21.1577 26.5 21.156 26.5 21.1544 26.5C21.1528 26.5 21.1512 26.5 21.1497 26.5C21.1481 26.5 21.1465 26.5 21.145 26.5C21.1434 26.5 21.1419 26.5 21.1404 26.5C21.1389 26.5 21.1374 26.5 21.1359 26.5C21.1344 26.5 21.133 26.5 21.1315 26.5C21.1301 26.5 21.1287 26.5 21.1273 26.5C21.1258 26.5 21.1244 26.5 21.1231 26.5C21.1217 26.5 21.1203 26.5 21.119 26.5C21.1176 26.5 21.1163 26.5 21.1149 26.5C21.1136 26.5 21.1123 26.5 21.111 26.5C21.1097 26.5 21.1085 26.5 21.1072 26.5C21.1059 26.5 21.1047 26.5 21.1035 26.5C21.1022 26.5 21.101 26.5 21.0998 26.5C21.0986 26.5 21.0974 26.5 21.0962 26.5C21.0951 26.5 21.0939 26.5 21.0928 26.5C21.0916 26.5 21.0905 26.5 21.0894 26.5C21.0883 26.5 21.0872 26.5 21.0861 26.5C21.085 26.5 21.0839 26.5 21.0828 26.5C21.0818 26.5 21.0807 26.5 21.0797 26.5C21.0787 26.5 21.0776 26.5 21.0766 26.5C21.0756 26.5 21.0746 26.5 21.0736 26.5C21.0727 26.5 21.0717 26.5 21.0707 26.5C21.0698 26.5 21.0688 26.5 21.0679 26.5C21.067 26.5 21.0661 26.5 21.0652 26.5C21.0642 26.5 21.0634 26.5 21.0625 26.5C21.0616 26.5 21.0607 26.5 21.0599 26.5C21.059 26.5 21.0582 26.5 21.0573 26.5C21.0565 26.5 21.0557 26.5 21.0549 26.5C21.0541 26.5 21.0533 26.5 21.0525 26.5C21.0517 26.5 21.0509 26.5 21.0502 26.5C21.0494 26.5 21.0487 26.5 21.0479 26.5C21.0472 26.5 21.0465 26.5 21.0458 26.5C21.045 26.5 21.0443 26.5 21.0436 26.5C21.043 26.5 21.0423 26.5 21.0416 26.5C21.0409 26.5 21.0403 26.5 21.0396 26.5C21.039 26.5 21.0383 26.5 21.0377 26.5C21.0371 26.5 21.0365 26.5 21.0359 26.5C21.0352 26.5 21.0346 26.5 21.0341 26.5C21.0335 26.5 21.0329 26.5 21.0323 26.5C21.0318 26.5 21.0312 26.5 21.0307 26.5C21.0301 26.5 21.0296 26.5 21.029 26.5C21.0285 26.5 21.028 26.5 21.0275 26.5C21.027 26.5 21.0265 26.5 21.026 26.5C21.0255 26.5 21.025 26.5 21.0245 26.5C21.0241 26.5 21.0236 26.5 21.0232 26.5C21.0227 26.5 21.0223 26.5 21.0218 26.5C21.0214 26.5 21.021 26.5 21.0205 26.5C21.0201 26.5 21.0197 26.5 21.0193 26.5C21.0189 26.5 21.0185 26.5 21.0181 26.5C21.0177 26.5 21.0174 26.5 21.017 26.5C21.0166 26.5 21.0163 26.5 21.0159 26.5C21.0156 26.5 21.0152 26.5 21.0149 26.5C21.0145 26.5 21.0142 26.5 21.0139 26.5C21.0136 26.5 21.0132 26.5 21.0129 26.5C21.0126 26.5 21.0123 26.5 21.012 26.5C21.0117 26.5 21.0115 26.5 21.0112 26.5C21.0109 26.5 21.0106 26.5 21.0104 26.5C21.0101 26.5 21.0098 26.5 21.0096 26.5C21.0093 26.5 21.0091 26.5 21.0088 26.5C21.0086 26.5 21.0084 26.5 21.0081 26.5C21.0079 26.5 21.0077 26.5 21.0075 26.5C21.0073 26.5 21.0071 26.5 21.0069 26.5C21.0067 26.5 21.0065 26.5 21.0063 26.5C21.0061 26.5 21.0059 26.5 21.0057 26.5C21.0055 26.5 21.0054 26.5 21.0052 26.5C21.005 26.5 21.0049 26.5 21.0047 26.5C21.0046 26.5 21.0044 26.5 21.0043 26.5C21.0041 26.5 21.004 26.5 21.0038 26.5C21.0037 26.5 21.0036 26.5 21.0034 26.5C21.0033 26.5 21.0032 26.5 21.0031 26.5C21.003 26.5 21.0028 26.5 21.0027 26.5C21.0026 26.5 21.0025 26.5 21.0024 26.5C21.0023 26.5 21.0022 26.5 21.0021 26.5C21.002 26.5 21.0019 26.5 21.0019 26.5C21.0018 26.5 21.0017 26.5 21.0016 26.5C21.0015 26.5 21.0015 26.5 21.0014 26.5C21.0013 26.5 21.0013 26.5 21.0012 26.5C21.0011 26.5 21.0011 26.5 21.001 26.5C21.001 26.5 21.0009 26.5 21.0009 26.5C21.0008 26.5 21.0008 26.5 21.0007 26.5C21.0007 26.5 21.0006 26.5 21.0006 26.5C21.0005 26.5 21.0005 26.5 21.0005 26.5C21.0004 26.5 21.0004 26.5 21.0004 26.5C21.0004 26.5 21.0003 26.5 21.0003 26.5C21.0003 26.5 21.0003 26.5 21.0002 26.5C21.0002 26.5 21.0002 26.5 21.0002 26.5C21.0002 26.5 21.0001 26.5 21.0001 26.5C21.0001 26.5 21.0001 26.5 21.0001 26.5C21.0001 26.5 21.0001 26.5 21.0001 26.5C21.0001 26.5 21 26.5 21 26.5C21 26.5 21 26.5 21 26.5C21 26.5 21 26.5 21 26.5C21 26.5 21 26.5 21 26.5C21 26.5 21 26.5 21 26.5C21 26.5 21 26.5 21 26.5C21 26.5 21 28 21 28ZM44.4286 29.5C55.5272 29.5 60.5 35.7763 60.5 41.5C60.5 47.2237 55.5272 53.5 44.4286 53.5V56.5C56.7585 56.5 63.5 49.2763 63.5 41.5C63.5 33.7237 56.7585 26.5 44.4286 26.5V29.5ZM44.4286 53.5C44.4209 53.5 44.4132 53.5 44.4055 53.5C44.3979 53.5 44.3902 53.5 44.3825 53.5C44.3749 53.5 44.3672 53.5 44.3595 53.5C44.3519 53.5 44.3442 53.5 44.3365 53.5C44.3289 53.5 44.3212 53.5 44.3136 53.5C44.3059 53.5 44.2983 53.5 44.2906 53.5C44.283 53.5 44.2753 53.5 44.2677 53.5C44.26 53.5 44.2524 53.5 44.2448 53.5C44.2371 53.5 44.2295 53.5 44.2218 53.5C44.2142 53.5 44.2066 53.5 44.1989 53.5C44.1913 53.5 44.1837 53.5 44.1761 53.5C44.1684 53.5 44.1608 53.5 44.1532 53.5C44.1456 53.5 44.138 53.5 44.1304 53.5C44.1227 53.5 44.1151 53.5 44.1075 53.5C44.0999 53.5 44.0923 53.5 44.0847 53.5C44.0771 53.5 44.0695 53.5 44.0619 53.5C44.0543 53.5 44.0467 53.5 44.0391 53.5C44.0315 53.5 44.0239 53.5 44.0163 53.5C44.0087 53.5 44.0012 53.5 43.9936 53.5C43.986 53.5 43.9784 53.5 43.9708 53.5C43.9632 53.5 43.9557 53.5 43.9481 53.5C43.9405 53.5 43.9329 53.5 43.9254 53.5C43.9178 53.5 43.9102 53.5 43.9027 53.5C43.8951 53.5 43.8876 53.5 43.88 53.5C43.8724 53.5 43.8649 53.5 43.8573 53.5C43.8498 53.5 43.8422 53.5 43.8347 53.5C43.8271 53.5 43.8196 53.5 43.812 53.5C43.8045 53.5 43.7969 53.5 43.7894 53.5C43.7819 53.5 43.7743 53.5 43.7668 53.5C43.7593 53.5 43.7517 53.5 43.7442 53.5C43.7367 53.5 43.7291 53.5 43.7216 53.5C43.7141 53.5 43.7066 53.5 43.6991 53.5C43.6915 53.5 43.684 53.5 43.6765 53.5C43.669 53.5 43.6615 53.5 43.654 53.5C43.6465 53.5 43.639 53.5 43.6315 53.5C43.6239 53.5 43.6164 53.5 43.6089 53.5C43.6014 53.5 43.594 53.5 43.5865 53.5C43.579 53.5 43.5715 53.5 43.564 53.5C43.5565 53.5 43.549 53.5 43.5415 53.5C43.534 53.5 43.5266 53.5 43.5191 53.5C43.5116 53.5 43.5041 53.5 43.4966 53.5C43.4892 53.5 43.4817 53.5 43.4742 53.5C43.4668 53.5 43.4593 53.5 43.4518 53.5C43.4444 53.5 43.4369 53.5 43.4294 53.5C43.422 53.5 43.4145 53.5 43.4071 53.5C43.3996 53.5 43.3922 53.5 43.3847 53.5C43.3773 53.5 43.3698 53.5 43.3624 53.5C43.3549 53.5 43.3475 53.5 43.3401 53.5C43.3326 53.5 43.3252 53.5 43.3177 53.5C43.3103 53.5 43.3029 53.5 43.2954 53.5C43.288 53.5 43.2806 53.5 43.2732 53.5C43.2657 53.5 43.2583 53.5 43.2509 53.5C43.2435 53.5 43.2361 53.5 43.2286 53.5C43.2212 53.5 43.2138 53.5 43.2064 53.5C43.199 53.5 43.1916 53.5 43.1842 53.5C43.1768 53.5 43.1694 53.5 43.162 53.5C43.1546 53.5 43.1472 53.5 43.1398 53.5C43.1324 53.5 43.125 53.5 43.1176 53.5C43.1102 53.5 43.1028 53.5 43.0954 53.5C43.0881 53.5 43.0807 53.5 43.0733 53.5C43.0659 53.5 43.0585 53.5 43.0512 53.5C43.0438 53.5 43.0364 53.5 43.029 53.5C43.0217 53.5 43.0143 53.5 43.0069 53.5C42.9996 53.5 42.9922 53.5 42.9848 53.5C42.9775 53.5 42.9701 53.5 42.9628 53.5C42.9554 53.5 42.9481 53.5 42.9407 53.5C42.9334 53.5 42.926 53.5 42.9187 53.5C42.9113 53.5 42.904 53.5 42.8966 53.5C42.8893 53.5 42.882 53.5 42.8746 53.5C42.8673 53.5 42.86 53.5 42.8526 53.5C42.8453 53.5 42.838 53.5 42.8306 53.5C42.8233 53.5 42.816 53.5 42.8087 53.5C42.8013 53.5 42.794 53.5 42.7867 53.5C42.7794 53.5 42.7721 53.5 42.7648 53.5C42.7575 53.5 42.7501 53.5 42.7428 53.5C42.7355 53.5 42.7282 53.5 42.7209 53.5C42.7136 53.5 42.7063 53.5 42.699 53.5C42.6917 53.5 42.6844 53.5 42.6772 53.5C42.6699 53.5 42.6626 53.5 42.6553 53.5C42.648 53.5 42.6407 53.5 42.6334 53.5C42.6261 53.5 42.6189 53.5 42.6116 53.5C42.6043 53.5 42.597 53.5 42.5898 53.5C42.5825 53.5 42.5752 53.5 42.568 53.5C42.5607 53.5 42.5534 53.5 42.5462 53.5C42.5389 53.5 42.5316 53.5 42.5244 53.5C42.5171 53.5 42.5099 53.5 42.5026 53.5C42.4954 53.5 42.4881 53.5 42.4809 53.5C42.4736 53.5 42.4664 53.5 42.4591 53.5C42.4519 53.5 42.4447 53.5 42.4374 53.5C42.4302 53.5 42.4229 53.5 42.4157 53.5C42.4085 53.5 42.4012 53.5 42.394 53.5C42.3868 53.5 42.3796 53.5 42.3723 53.5C42.3651 53.5 42.3579 53.5 42.3507 53.5C42.3435 53.5 42.3362 53.5 42.329 53.5C42.3218 53.5 42.3146 53.5 42.3074 53.5C42.3002 53.5 42.293 53.5 42.2858 53.5C42.2786 53.5 42.2714 53.5 42.2642 53.5C42.257 53.5 42.2498 53.5 42.2426 53.5C42.2354 53.5 42.2282 53.5 42.221 53.5C42.2138 53.5 42.2066 53.5 42.1995 53.5C42.1923 53.5 42.1851 53.5 42.1779 53.5C42.1707 53.5 42.1635 53.5 42.1564 53.5C42.1492 53.5 42.142 53.5 42.1349 53.5C42.1277 53.5 42.1205 53.5 42.1134 53.5C42.1062 53.5 42.099 53.5 42.0919 53.5C42.0847 53.5 42.0776 53.5 42.0704 53.5C42.0632 53.5 42.0561 53.5 42.0489 53.5C42.0418 53.5 42.0346 53.5 42.0275 53.5C42.0204 53.5 42.0132 53.5 42.0061 53.5C41.9989 53.5 41.9918 53.5 41.9847 53.5C41.9775 53.5 41.9704 53.5 41.9633 53.5C41.9561 53.5 41.949 53.5 41.9419 53.5C41.9347 53.5 41.9276 53.5 41.9205 53.5C41.9134 53.5 41.9063 53.5 41.8991 53.5C41.892 53.5 41.8849 53.5 41.8778 53.5C41.8707 53.5 41.8636 53.5 41.8565 53.5C41.8494 53.5 41.8423 53.5 41.8352 53.5C41.8281 53.5 41.821 53.5 41.8139 53.5C41.8068 53.5 41.7997 53.5 41.7926 53.5C41.7855 53.5 41.7784 53.5 41.7713 53.5C41.7642 53.5 41.7571 53.5 41.7501 53.5C41.743 53.5 41.7359 53.5 41.7288 53.5C41.7217 53.5 41.7147 53.5 41.7076 53.5C41.7005 53.5 41.6935 53.5 41.6864 53.5C41.6793 53.5 41.6723 53.5 41.6652 53.5C41.6581 53.5 41.6511 53.5 41.644 53.5C41.6369 53.5 41.6299 53.5 41.6228 53.5C41.6158 53.5 41.6087 53.5 41.6017 53.5C41.5946 53.5 41.5876 53.5 41.5805 53.5C41.5735 53.5 41.5665 53.5 41.5594 53.5C41.5524 53.5 41.5453 53.5 41.5383 53.5C41.5313 53.5 41.5243 53.5 41.5172 53.5C41.5102 53.5 41.5032 53.5 41.4961 53.5C41.4891 53.5 41.4821 53.5 41.4751 53.5C41.4681 53.5 41.461 53.5 41.454 53.5C41.447 53.5 41.44 53.5 41.433 53.5C41.426 53.5 41.419 53.5 41.412 53.5C41.405 53.5 41.398 53.5 41.391 53.5C41.384 53.5 41.377 53.5 41.37 53.5C41.363 53.5 41.356 53.5 41.349 53.5C41.342 53.5 41.335 53.5 41.328 53.5C41.321 53.5 41.314 53.5 41.3071 53.5C41.3001 53.5 41.2931 53.5 41.2861 53.5C41.2792 53.5 41.2722 53.5 41.2652 53.5C41.2582 53.5 41.2513 53.5 41.2443 53.5C41.2373 53.5 41.2304 53.5 41.2234 53.5C41.2164 53.5 41.2095 53.5 41.2025 53.5C41.1956 53.5 41.1886 53.5 41.1817 53.5C41.1747 53.5 41.1678 53.5 41.1608 53.5C41.1539 53.5 41.1469 53.5 41.14 53.5C41.133 53.5 41.1261 53.5 41.1192 53.5C41.1122 53.5 41.1053 53.5 41.0984 53.5C41.0914 53.5 41.0845 53.5 41.0776 53.5C41.0706 53.5 41.0637 53.5 41.0568 53.5C41.0499 53.5 41.0429 53.5 41.036 53.5C41.0291 53.5 41.0222 53.5 41.0153 53.5C41.0084 53.5 41.0014 53.5 40.9945 53.5C40.9876 53.5 40.9807 53.5 40.9738 53.5C40.9669 53.5 40.96 53.5 40.9531 53.5C40.9462 53.5 40.9393 53.5 40.9324 53.5C40.9255 53.5 40.9186 53.5 40.9117 53.5C40.9048 53.5 40.898 53.5 40.8911 53.5C40.8842 53.5 40.8773 53.5 40.8704 53.5C40.8635 53.5 40.8567 53.5 40.8498 53.5C40.8429 53.5 40.836 53.5 40.8292 53.5C40.8223 53.5 40.8154 53.5 40.8086 53.5C40.8017 53.5 40.7948 53.5 40.788 53.5C40.7811 53.5 40.7742 53.5 40.7674 53.5C40.7605 53.5 40.7537 53.5 40.7468 53.5C40.74 53.5 40.7331 53.5 40.7263 53.5C40.7194 53.5 40.7126 53.5 40.7057 53.5C40.6989 53.5 40.6921 53.5 40.6852 53.5C40.6784 53.5 40.6715 53.5 40.6647 53.5C40.6579 53.5 40.6511 53.5 40.6442 53.5C40.6374 53.5 40.6306 53.5 40.6237 53.5C40.6169 53.5 40.6101 53.5 40.6033 53.5C40.5965 53.5 40.5896 53.5 40.5828 53.5C40.576 53.5 40.5692 53.5 40.5624 53.5C40.5556 53.5 40.5488 53.5 40.542 53.5C40.5352 53.5 40.5284 53.5 40.5216 53.5C40.5148 53.5 40.508 53.5 40.5012 53.5C40.4944 53.5 40.4876 53.5 40.4808 53.5C40.474 53.5 40.4672 53.5 40.4604 53.5C40.4536 53.5 40.4469 53.5 40.4401 53.5C40.4333 53.5 40.4265 53.5 40.4197 53.5C40.413 53.5 40.4062 53.5 40.3994 53.5C40.3927 53.5 40.3859 53.5 40.3791 53.5C40.3724 53.5 40.3656 53.5 40.3588 53.5C40.3521 53.5 40.3453 53.5 40.3385 53.5C40.3318 53.5 40.325 53.5 40.3183 53.5C40.3115 53.5 40.3048 53.5 40.298 53.5C40.2913 53.5 40.2845 53.5 40.2778 53.5C40.271 53.5 40.2643 53.5 40.2576 53.5C40.2508 53.5 40.2441 53.5 40.2374 53.5C40.2306 53.5 40.2239 53.5 40.2172 53.5C40.2104 53.5 40.2037 53.5 40.197 53.5C40.1903 53.5 40.1835 53.5 40.1768 53.5C40.1701 53.5 40.1634 53.5 40.1567 53.5C40.15 53.5 40.1432 53.5 40.1365 53.5C40.1298 53.5 40.1231 53.5 40.1164 53.5C40.1097 53.5 40.103 53.5 40.0963 53.5C40.0896 53.5 40.0829 53.5 40.0762 53.5C40.0695 53.5 40.0628 53.5 40.0561 53.5C40.0494 53.5 40.0427 53.5 40.0361 53.5C40.0294 53.5 40.0227 53.5 40.016 53.5C40.0093 53.5 40.0026 53.5 39.996 53.5C39.9893 53.5 39.9826 53.5 39.9759 53.5C39.9693 53.5 39.9626 53.5 39.9559 53.5C39.9493 53.5 39.9426 53.5 39.9359 53.5C39.9293 53.5 39.9226 53.5 39.9159 53.5C39.9093 53.5 39.9026 53.5 39.896 53.5C39.8893 53.5 39.8827 53.5 39.876 53.5C39.8694 53.5 39.8627 53.5 39.8561 53.5C39.8494 53.5 39.8428 53.5 39.8362 53.5C39.8295 53.5 39.8229 53.5 39.8162 53.5C39.8096 53.5 39.803 53.5 39.7963 53.5C39.7897 53.5 39.7831 53.5 39.7765 53.5C39.7698 53.5 39.7632 53.5 39.7566 53.5C39.75 53.5 39.7434 53.5 39.7367 53.5C39.7301 53.5 39.7235 53.5 39.7169 53.5C39.7103 53.5 39.7037 53.5 39.6971 53.5C39.6905 53.5 39.6839 53.5 39.6772 53.5C39.6706 53.5 39.664 53.5 39.6574 53.5C39.6509 53.5 39.6443 53.5 39.6377 53.5C39.6311 53.5 39.6245 53.5 39.6179 53.5C39.6113 53.5 39.6047 53.5 39.5981 53.5C39.5915 53.5 39.585 53.5 39.5784 53.5C39.5718 53.5 39.5652 53.5 39.5587 53.5C39.5521 53.5 39.5455 53.5 39.5389 53.5C39.5324 53.5 39.5258 53.5 39.5192 53.5C39.5127 53.5 39.5061 53.5 39.4996 53.5C39.493 53.5 39.4864 53.5 39.4799 53.5C39.4733 53.5 39.4668 53.5 39.4602 53.5C39.4537 53.5 39.4471 53.5 39.4406 53.5C39.434 53.5 39.4275 53.5 39.4209 53.5C39.4144 53.5 39.4079 53.5 39.4013 53.5C39.3948 53.5 39.3882 53.5 39.3817 53.5C39.3752 53.5 39.3687 53.5 39.3621 53.5C39.3556 53.5 39.3491 53.5 39.3425 53.5C39.336 53.5 39.3295 53.5 39.323 53.5C39.3165 53.5 39.3099 53.5 39.3034 53.5C39.2969 53.5 39.2904 53.5 39.2839 53.5C39.2774 53.5 39.2709 53.5 39.2644 53.5C39.2579 53.5 39.2514 53.5 39.2449 53.5C39.2384 53.5 39.2319 53.5 39.2254 53.5C39.2189 53.5 39.2124 53.5 39.2059 53.5C39.1994 53.5 39.1929 53.5 39.1864 53.5C39.1799 53.5 39.1735 53.5 39.167 53.5C39.1605 53.5 39.154 53.5 39.1475 53.5C39.1411 53.5 39.1346 53.5 39.1281 53.5C39.1216 53.5 39.1152 53.5 39.1087 53.5C39.1022 53.5 39.0958 53.5 39.0893 53.5C39.0828 53.5 39.0764 53.5 39.0699 53.5C39.0635 53.5 39.057 53.5 39.0506 53.5C39.0441 53.5 39.0377 53.5 39.0312 53.5C39.0248 53.5 39.0183 53.5 39.0119 53.5C39.0054 53.5 38.999 53.5 38.9925 53.5C38.9861 53.5 38.9797 53.5 38.9732 53.5C38.9668 53.5 38.9604 53.5 38.9539 53.5C38.9475 53.5 38.9411 53.5 38.9346 53.5C38.9282 53.5 38.9218 53.5 38.9154 53.5C38.9089 53.5 38.9025 53.5 38.8961 53.5C38.8897 53.5 38.8833 53.5 38.8769 53.5C38.8705 53.5 38.864 53.5 38.8576 53.5C38.8512 53.5 38.8448 53.5 38.8384 53.5C38.832 53.5 38.8256 53.5 38.8192 53.5C38.8128 53.5 38.8064 53.5 38.8 53.5C38.7936 53.5 38.7872 53.5 38.7809 53.5C38.7745 53.5 38.7681 53.5 38.7617 53.5C38.7553 53.5 38.7489 53.5 38.7425 53.5C38.7362 53.5 38.7298 53.5 38.7234 53.5C38.717 53.5 38.7107 53.5 38.7043 53.5C38.6979 53.5 38.6915 53.5 38.6852 53.5C38.6788 53.5 38.6725 53.5 38.6661 53.5C38.6597 53.5 38.6534 53.5 38.647 53.5C38.6407 53.5 38.6343 53.5 38.6279 53.5C38.6216 53.5 38.6152 53.5 38.6089 53.5C38.6025 53.5 38.5962 53.5 38.5899 53.5C38.5835 53.5 38.5772 53.5 38.5708 53.5C38.5645 53.5 38.5582 53.5 38.5518 53.5C38.5455 53.5 38.5392 53.5 38.5328 53.5C38.5265 53.5 38.5202 53.5 38.5138 53.5C38.5075 53.5 38.5012 53.5 38.4949 53.5C38.4886 53.5 38.4822 53.5 38.4759 53.5C38.4696 53.5 38.4633 53.5 38.457 53.5C38.4507 53.5 38.4444 53.5 38.438 53.5C38.4317 53.5 38.4254 53.5 38.4191 53.5C38.4128 53.5 38.4065 53.5 38.4002 53.5C38.3939 53.5 38.3876 53.5 38.3813 53.5C38.3751 53.5 38.3688 53.5 38.3625 53.5C38.3562 53.5 38.3499 53.5 38.3436 53.5C38.3373 53.5 38.331 53.5 38.3248 53.5C38.3185 53.5 38.3122 53.5 38.3059 53.5C38.2997 53.5 38.2934 53.5 38.2871 53.5C38.2808 53.5 38.2746 53.5 38.2683 53.5C38.262 53.5 38.2558 53.5 38.2495 53.5C38.2433 53.5 38.237 53.5 38.2307 53.5C38.2245 53.5 38.2182 53.5 38.212 53.5C38.2057 53.5 38.1995 53.5 38.1932 53.5C38.187 53.5 38.1807 53.5 38.1745 53.5C38.1682 53.5 38.162 53.5 38.1558 53.5C38.1495 53.5 38.1433 53.5 38.1371 53.5C38.1308 53.5 38.1246 53.5 38.1184 53.5C38.1121 53.5 38.1059 53.5 38.0997 53.5C38.0935 53.5 38.0872 53.5 38.081 53.5C38.0748 53.5 38.0686 53.5 38.0624 53.5C38.0561 53.5 38.0499 53.5 38.0437 53.5C38.0375 53.5 38.0313 53.5 38.0251 53.5C38.0189 53.5 38.0127 53.5 38.0065 53.5C38.0003 53.5 37.9941 53.5 37.9879 53.5C37.9817 53.5 37.9755 53.5 37.9693 53.5C37.9631 53.5 37.9569 53.5 37.9507 53.5C37.9445 53.5 37.9383 53.5 37.9321 53.5C37.926 53.5 37.9198 53.5 37.9136 53.5C37.9074 53.5 37.9012 53.5 37.8951 53.5C37.8889 53.5 37.8827 53.5 37.8765 53.5C37.8704 53.5 37.8642 53.5 37.858 53.5C37.8519 53.5 37.8457 53.5 37.8396 53.5C37.8334 53.5 37.8272 53.5 37.8211 53.5C37.8149 53.5 37.8088 53.5 37.8026 53.5C37.7965 53.5 37.7903 53.5 37.7842 53.5C37.778 53.5 37.7719 53.5 37.7657 53.5C37.7596 53.5 37.7534 53.5 37.7473 53.5C37.7412 53.5 37.735 53.5 37.7289 53.5C37.7227 53.5 37.7166 53.5 37.7105 53.5C37.7044 53.5 37.6982 53.5 37.6921 53.5C37.686 53.5 37.6798 53.5 37.6737 53.5C37.6676 53.5 37.6615 53.5 37.6554 53.5C37.6493 53.5 37.6431 53.5 37.637 53.5C37.6309 53.5 37.6248 53.5 37.6187 53.5C37.6126 53.5 37.6065 53.5 37.6004 53.5C37.5943 53.5 37.5882 53.5 37.5821 53.5C37.576 53.5 37.5699 53.5 37.5638 53.5C37.5577 53.5 37.5516 53.5 37.5455 53.5C37.5394 53.5 37.5333 53.5 37.5272 53.5C37.5212 53.5 37.5151 53.5 37.509 53.5C37.5029 53.5 37.4968 53.5 37.4908 53.5C37.4847 53.5 37.4786 53.5 37.4725 53.5C37.4665 53.5 37.4604 53.5 37.4543 53.5C37.4483 53.5 37.4422 53.5 37.4361 53.5C37.4301 53.5 37.424 53.5 37.4179 53.5C37.4119 53.5 37.4058 53.5 37.3998 53.5C37.3937 53.5 37.3877 53.5 37.3816 53.5C37.3756 53.5 37.3695 53.5 37.3635 53.5C37.3574 53.5 37.3514 53.5 37.3454 53.5C37.3393 53.5 37.3333 53.5 37.3272 53.5C37.3212 53.5 37.3152 53.5 37.3091 53.5C37.3031 53.5 37.2971 53.5 37.291 53.5C37.285 53.5 37.279 53.5 37.273 53.5C37.2669 53.5 37.2609 53.5 37.2549 53.5C37.2489 53.5 37.2429 53.5 37.2369 53.5C37.2308 53.5 37.2248 53.5 37.2188 53.5C37.2128 53.5 37.2068 53.5 37.2008 53.5C37.1948 53.5 37.1888 53.5 37.1828 53.5C37.1768 53.5 37.1708 53.5 37.1648 53.5C37.1588 53.5 37.1528 53.5 37.1468 53.5C37.1408 53.5 37.1348 53.5 37.1288 53.5C37.1229 53.5 37.1169 53.5 37.1109 53.5C37.1049 53.5 37.0989 53.5 37.093 53.5C37.087 53.5 37.081 53.5 37.075 53.5C37.069 53.5 37.0631 53.5 37.0571 53.5C37.0511 53.5 37.0452 53.5 37.0392 53.5C37.0332 53.5 37.0273 53.5 37.0213 53.5C37.0154 53.5 37.0094 53.5 37.0034 53.5C36.9975 53.5 36.9915 53.5 36.9856 53.5C36.9796 53.5 36.9737 53.5 36.9677 53.5C36.9618 53.5 36.9558 53.5 36.9499 53.5C36.944 53.5 36.938 53.5 36.9321 53.5C36.9261 53.5 36.9202 53.5 36.9143 53.5C36.9083 53.5 36.9024 53.5 36.8965 53.5C36.8905 53.5 36.8846 53.5 36.8787 53.5C36.8728 53.5 36.8668 53.5 36.8609 53.5C36.855 53.5 36.8491 53.5 36.8432 53.5C36.8372 53.5 36.8313 53.5 36.8254 53.5C36.8195 53.5 36.8136 53.5 36.8077 53.5C36.8018 53.5 36.7959 53.5 36.79 53.5C36.7841 53.5 36.7782 53.5 36.7723 53.5C36.7664 53.5 36.7605 53.5 36.7546 53.5C36.7487 53.5 36.7428 53.5 36.7369 53.5C36.731 53.5 36.7251 53.5 36.7192 53.5C36.7134 53.5 36.7075 53.5 36.7016 53.5C36.6957 53.5 36.6898 53.5 36.684 53.5C36.6781 53.5 36.6722 53.5 36.6663 53.5C36.6605 53.5 36.6546 53.5 36.6487 53.5C36.6429 53.5 36.637 53.5 36.6311 53.5C36.6253 53.5 36.6194 53.5 36.6135 53.5C36.6077 53.5 36.6018 53.5 36.596 53.5C36.5901 53.5 36.5843 53.5 36.5784 53.5C36.5726 53.5 36.5667 53.5 36.5609 53.5C36.555 53.5 36.5492 53.5 36.5433 53.5C36.5375 53.5 36.5317 53.5 36.5258 53.5C36.52 53.5 36.5141 53.5 36.5083 53.5C36.5025 53.5 36.4967 53.5 36.4908 53.5C36.485 53.5 36.4792 53.5 36.4733 53.5C36.4675 53.5 36.4617 53.5 36.4559 53.5C36.4501 53.5 36.4442 53.5 36.4384 53.5C36.4326 53.5 36.4268 53.5 36.421 53.5C36.4152 53.5 36.4094 53.5 36.4036 53.5C36.3978 53.5 36.392 53.5 36.3861 53.5C36.3803 53.5 36.3745 53.5 36.3687 53.5C36.363 53.5 36.3572 53.5 36.3514 53.5C36.3456 53.5 36.3398 53.5 36.334 53.5C36.3282 53.5 36.3224 53.5 36.3166 53.5C36.3108 53.5 36.3051 53.5 36.2993 53.5C36.2935 53.5 36.2877 53.5 36.2819 53.5C36.2762 53.5 36.2704 53.5 36.2646 53.5C36.2589 53.5 36.2531 53.5 36.2473 53.5C36.2416 53.5 36.2358 53.5 36.23 53.5C36.2243 53.5 36.2185 53.5 36.2127 53.5C36.207 53.5 36.2012 53.5 36.1955 53.5C36.1897 53.5 36.184 53.5 36.1782 53.5C36.1725 53.5 36.1667 53.5 36.161 53.5C36.1552 53.5 36.1495 53.5 36.1437 53.5C36.138 53.5 36.1323 53.5 36.1265 53.5C36.1208 53.5 36.1151 53.5 36.1093 53.5C36.1036 53.5 36.0979 53.5 36.0921 53.5C36.0864 53.5 36.0807 53.5 36.075 53.5C36.0692 53.5 36.0635 53.5 36.0578 53.5C36.0521 53.5 36.0464 53.5 36.0406 53.5C36.0349 53.5 36.0292 53.5 36.0235 53.5C36.0178 53.5 36.0121 53.5 36.0064 53.5C36.0007 53.5 35.995 53.5 35.9893 53.5C35.9836 53.5 35.9779 53.5 35.9722 53.5C35.9665 53.5 35.9608 53.5 35.9551 53.5C35.9494 53.5 35.9437 53.5 35.938 53.5C35.9323 53.5 35.9266 53.5 35.921 53.5C35.9153 53.5 35.9096 53.5 35.9039 53.5C35.8982 53.5 35.8925 53.5 35.8869 53.5C35.8812 53.5 35.8755 53.5 35.8698 53.5C35.8642 53.5 35.8585 53.5 35.8528 53.5C35.8472 53.5 35.8415 53.5 35.8358 53.5C35.8302 53.5 35.8245 53.5 35.8189 53.5C35.8132 53.5 35.8075 53.5 35.8019 53.5C35.7962 53.5 35.7906 53.5 35.7849 53.5C35.7793 53.5 35.7736 53.5 35.768 53.5C35.7624 53.5 35.7567 53.5 35.7511 53.5C35.7454 53.5 35.7398 53.5 35.7341 53.5C35.7285 53.5 35.7229 53.5 35.7172 53.5C35.7116 53.5 35.706 53.5 35.7004 53.5C35.6947 53.5 35.6891 53.5 35.6835 53.5C35.6778 53.5 35.6722 53.5 35.6666 53.5C35.661 53.5 35.6554 53.5 35.6498 53.5C35.6441 53.5 35.6385 53.5 35.6329 53.5C35.6273 53.5 35.6217 53.5 35.6161 53.5C35.6105 53.5 35.6049 53.5 35.5993 53.5C35.5937 53.5 35.5881 53.5 35.5825 53.5C35.5769 53.5 35.5713 53.5 35.5657 53.5C35.5601 53.5 35.5545 53.5 35.5489 53.5C35.5433 53.5 35.5377 53.5 35.5321 53.5C35.5266 53.5 35.521 53.5 35.5154 53.5C35.5098 53.5 35.5042 53.5 35.4987 53.5C35.4931 53.5 35.4875 53.5 35.4819 53.5C35.4764 53.5 35.4708 53.5 35.4652 53.5C35.4597 53.5 35.4541 53.5 35.4485 53.5C35.443 53.5 35.4374 53.5 35.4318 53.5C35.4263 53.5 35.4207 53.5 35.4152 53.5C35.4096 53.5 35.4041 53.5 35.3985 53.5C35.393 53.5 35.3874 53.5 35.3819 53.5C35.3763 53.5 35.3708 53.5 35.3652 53.5C35.3597 53.5 35.3541 53.5 35.3486 53.5C35.3431 53.5 35.3375 53.5 35.332 53.5C35.3265 53.5 35.3209 53.5 35.3154 53.5C35.3099 53.5 35.3043 53.5 35.2988 53.5C35.2933 53.5 35.2878 53.5 35.2823 53.5C35.2767 53.5 35.2712 53.5 35.2657 53.5C35.2602 53.5 35.2547 53.5 35.2492 53.5C35.2436 53.5 35.2381 53.5 35.2326 53.5C35.2271 53.5 35.2216 53.5 35.2161 53.5C35.2106 53.5 35.2051 53.5 35.1996 53.5C35.1941 53.5 35.1886 53.5 35.1831 53.5C35.1776 53.5 35.1721 53.5 35.1666 53.5C35.1611 53.5 35.1556 53.5 35.1502 53.5C35.1447 53.5 35.1392 53.5 35.1337 53.5C35.1282 53.5 35.1227 53.5 35.1173 53.5C35.1118 53.5 35.1063 53.5 35.1008 53.5C35.0954 53.5 35.0899 53.5 35.0844 53.5C35.0789 53.5 35.0735 53.5 35.068 53.5C35.0625 53.5 35.0571 53.5 35.0516 53.5C35.0462 53.5 35.0407 53.5 35.0352 53.5C35.0298 53.5 35.0243 53.5 35.0189 53.5C35.0134 53.5 35.008 53.5 35.0025 53.5C34.9971 53.5 34.9916 53.5 34.9862 53.5C34.9807 53.5 34.9753 53.5 34.9699 53.5C34.9644 53.5 34.959 53.5 34.9535 53.5C34.9481 53.5 34.9427 53.5 34.9372 53.5C34.9318 53.5 34.9264 53.5 34.921 53.5C34.9155 53.5 34.9101 53.5 34.9047 53.5C34.8993 53.5 34.8938 53.5 34.8884 53.5C34.883 53.5 34.8776 53.5 34.8722 53.5C34.8667 53.5 34.8613 53.5 34.8559 53.5C34.8505 53.5 34.8451 53.5 34.8397 53.5C34.8343 53.5 34.8289 53.5 34.8235 53.5C34.8181 53.5 34.8127 53.5 34.8073 53.5C34.8019 53.5 34.7965 53.5 34.7911 53.5C34.7857 53.5 34.7803 53.5 34.7749 53.5C34.7695 53.5 34.7641 53.5 34.7588 53.5C34.7534 53.5 34.748 53.5 34.7426 53.5C34.7372 53.5 34.7318 53.5 34.7265 53.5C34.7211 53.5 34.7157 53.5 34.7103 53.5C34.705 53.5 34.6996 53.5 34.6942 53.5C34.6889 53.5 34.6835 53.5 34.6781 53.5C34.6728 53.5 34.6674 53.5 34.662 53.5C34.6567 53.5 34.6513 53.5 34.646 53.5C34.6406 53.5 34.6353 53.5 34.6299 53.5C34.6246 53.5 34.6192 53.5 34.6139 53.5C34.6085 53.5 34.6032 53.5 34.5978 53.5C34.5925 53.5 34.5871 53.5 34.5818 53.5C34.5765 53.5 34.5711 53.5 34.5658 53.5C34.5605 53.5 34.5551 53.5 34.5498 53.5C34.5445 53.5 34.5391 53.5 34.5338 53.5C34.5285 53.5 34.5232 53.5 34.5178 53.5C34.5125 53.5 34.5072 53.5 34.5019 53.5V56.5C34.5072 56.5 34.5125 56.5 34.5178 56.5C34.5232 56.5 34.5285 56.5 34.5338 56.5C34.5391 56.5 34.5445 56.5 34.5498 56.5C34.5551 56.5 34.5605 56.5 34.5658 56.5C34.5711 56.5 34.5765 56.5 34.5818 56.5C34.5871 56.5 34.5925 56.5 34.5978 56.5C34.6032 56.5 34.6085 56.5 34.6139 56.5C34.6192 56.5 34.6246 56.5 34.6299 56.5C34.6353 56.5 34.6406 56.5 34.646 56.5C34.6513 56.5 34.6567 56.5 34.662 56.5C34.6674 56.5 34.6728 56.5 34.6781 56.5C34.6835 56.5 34.6889 56.5 34.6942 56.5C34.6996 56.5 34.705 56.5 34.7103 56.5C34.7157 56.5 34.7211 56.5 34.7265 56.5C34.7318 56.5 34.7372 56.5 34.7426 56.5C34.748 56.5 34.7534 56.5 34.7588 56.5C34.7641 56.5 34.7695 56.5 34.7749 56.5C34.7803 56.5 34.7857 56.5 34.7911 56.5C34.7965 56.5 34.8019 56.5 34.8073 56.5C34.8127 56.5 34.8181 56.5 34.8235 56.5C34.8289 56.5 34.8343 56.5 34.8397 56.5C34.8451 56.5 34.8505 56.5 34.8559 56.5C34.8613 56.5 34.8667 56.5 34.8722 56.5C34.8776 56.5 34.883 56.5 34.8884 56.5C34.8938 56.5 34.8993 56.5 34.9047 56.5C34.9101 56.5 34.9155 56.5 34.921 56.5C34.9264 56.5 34.9318 56.5 34.9372 56.5C34.9427 56.5 34.9481 56.5 34.9535 56.5C34.959 56.5 34.9644 56.5 34.9699 56.5C34.9753 56.5 34.9807 56.5 34.9862 56.5C34.9916 56.5 34.9971 56.5 35.0025 56.5C35.008 56.5 35.0134 56.5 35.0189 56.5C35.0243 56.5 35.0298 56.5 35.0352 56.5C35.0407 56.5 35.0462 56.5 35.0516 56.5C35.0571 56.5 35.0625 56.5 35.068 56.5C35.0735 56.5 35.0789 56.5 35.0844 56.5C35.0899 56.5 35.0954 56.5 35.1008 56.5C35.1063 56.5 35.1118 56.5 35.1173 56.5C35.1227 56.5 35.1282 56.5 35.1337 56.5C35.1392 56.5 35.1447 56.5 35.1502 56.5C35.1556 56.5 35.1611 56.5 35.1666 56.5C35.1721 56.5 35.1776 56.5 35.1831 56.5C35.1886 56.5 35.1941 56.5 35.1996 56.5C35.2051 56.5 35.2106 56.5 35.2161 56.5C35.2216 56.5 35.2271 56.5 35.2326 56.5C35.2381 56.5 35.2436 56.5 35.2492 56.5C35.2547 56.5 35.2602 56.5 35.2657 56.5C35.2712 56.5 35.2767 56.5 35.2823 56.5C35.2878 56.5 35.2933 56.5 35.2988 56.5C35.3043 56.5 35.3099 56.5 35.3154 56.5C35.3209 56.5 35.3265 56.5 35.332 56.5C35.3375 56.5 35.3431 56.5 35.3486 56.5C35.3541 56.5 35.3597 56.5 35.3652 56.5C35.3708 56.5 35.3763 56.5 35.3819 56.5C35.3874 56.5 35.393 56.5 35.3985 56.5C35.4041 56.5 35.4096 56.5 35.4152 56.5C35.4207 56.5 35.4263 56.5 35.4318 56.5C35.4374 56.5 35.443 56.5 35.4485 56.5C35.4541 56.5 35.4597 56.5 35.4652 56.5C35.4708 56.5 35.4764 56.5 35.4819 56.5C35.4875 56.5 35.4931 56.5 35.4987 56.5C35.5042 56.5 35.5098 56.5 35.5154 56.5C35.521 56.5 35.5266 56.5 35.5321 56.5C35.5377 56.5 35.5433 56.5 35.5489 56.5C35.5545 56.5 35.5601 56.5 35.5657 56.5C35.5713 56.5 35.5769 56.5 35.5825 56.5C35.5881 56.5 35.5937 56.5 35.5993 56.5C35.6049 56.5 35.6105 56.5 35.6161 56.5C35.6217 56.5 35.6273 56.5 35.6329 56.5C35.6385 56.5 35.6441 56.5 35.6498 56.5C35.6554 56.5 35.661 56.5 35.6666 56.5C35.6722 56.5 35.6778 56.5 35.6835 56.5C35.6891 56.5 35.6947 56.5 35.7004 56.5C35.706 56.5 35.7116 56.5 35.7172 56.5C35.7229 56.5 35.7285 56.5 35.7341 56.5C35.7398 56.5 35.7454 56.5 35.7511 56.5C35.7567 56.5 35.7624 56.5 35.768 56.5C35.7736 56.5 35.7793 56.5 35.7849 56.5C35.7906 56.5 35.7962 56.5 35.8019 56.5C35.8075 56.5 35.8132 56.5 35.8189 56.5C35.8245 56.5 35.8302 56.5 35.8358 56.5C35.8415 56.5 35.8472 56.5 35.8528 56.5C35.8585 56.5 35.8642 56.5 35.8698 56.5C35.8755 56.5 35.8812 56.5 35.8869 56.5C35.8925 56.5 35.8982 56.5 35.9039 56.5C35.9096 56.5 35.9153 56.5 35.921 56.5C35.9266 56.5 35.9323 56.5 35.938 56.5C35.9437 56.5 35.9494 56.5 35.9551 56.5C35.9608 56.5 35.9665 56.5 35.9722 56.5C35.9779 56.5 35.9836 56.5 35.9893 56.5C35.995 56.5 36.0007 56.5 36.0064 56.5C36.0121 56.5 36.0178 56.5 36.0235 56.5C36.0292 56.5 36.0349 56.5 36.0406 56.5C36.0464 56.5 36.0521 56.5 36.0578 56.5C36.0635 56.5 36.0692 56.5 36.075 56.5C36.0807 56.5 36.0864 56.5 36.0921 56.5C36.0979 56.5 36.1036 56.5 36.1093 56.5C36.1151 56.5 36.1208 56.5 36.1265 56.5C36.1323 56.5 36.138 56.5 36.1437 56.5C36.1495 56.5 36.1552 56.5 36.161 56.5C36.1667 56.5 36.1725 56.5 36.1782 56.5C36.184 56.5 36.1897 56.5 36.1955 56.5C36.2012 56.5 36.207 56.5 36.2127 56.5C36.2185 56.5 36.2243 56.5 36.23 56.5C36.2358 56.5 36.2416 56.5 36.2473 56.5C36.2531 56.5 36.2589 56.5 36.2646 56.5C36.2704 56.5 36.2762 56.5 36.2819 56.5C36.2877 56.5 36.2935 56.5 36.2993 56.5C36.3051 56.5 36.3108 56.5 36.3166 56.5C36.3224 56.5 36.3282 56.5 36.334 56.5C36.3398 56.5 36.3456 56.5 36.3514 56.5C36.3572 56.5 36.363 56.5 36.3687 56.5C36.3745 56.5 36.3803 56.5 36.3861 56.5C36.392 56.5 36.3978 56.5 36.4036 56.5C36.4094 56.5 36.4152 56.5 36.421 56.5C36.4268 56.5 36.4326 56.5 36.4384 56.5C36.4442 56.5 36.4501 56.5 36.4559 56.5C36.4617 56.5 36.4675 56.5 36.4733 56.5C36.4792 56.5 36.485 56.5 36.4908 56.5C36.4967 56.5 36.5025 56.5 36.5083 56.5C36.5141 56.5 36.52 56.5 36.5258 56.5C36.5317 56.5 36.5375 56.5 36.5433 56.5C36.5492 56.5 36.555 56.5 36.5609 56.5C36.5667 56.5 36.5726 56.5 36.5784 56.5C36.5843 56.5 36.5901 56.5 36.596 56.5C36.6018 56.5 36.6077 56.5 36.6135 56.5C36.6194 56.5 36.6253 56.5 36.6311 56.5C36.637 56.5 36.6429 56.5 36.6487 56.5C36.6546 56.5 36.6605 56.5 36.6663 56.5C36.6722 56.5 36.6781 56.5 36.684 56.5C36.6898 56.5 36.6957 56.5 36.7016 56.5C36.7075 56.5 36.7134 56.5 36.7192 56.5C36.7251 56.5 36.731 56.5 36.7369 56.5C36.7428 56.5 36.7487 56.5 36.7546 56.5C36.7605 56.5 36.7664 56.5 36.7723 56.5C36.7782 56.5 36.7841 56.5 36.79 56.5C36.7959 56.5 36.8018 56.5 36.8077 56.5C36.8136 56.5 36.8195 56.5 36.8254 56.5C36.8313 56.5 36.8372 56.5 36.8432 56.5C36.8491 56.5 36.855 56.5 36.8609 56.5C36.8668 56.5 36.8728 56.5 36.8787 56.5C36.8846 56.5 36.8905 56.5 36.8965 56.5C36.9024 56.5 36.9083 56.5 36.9143 56.5C36.9202 56.5 36.9261 56.5 36.9321 56.5C36.938 56.5 36.944 56.5 36.9499 56.5C36.9558 56.5 36.9618 56.5 36.9677 56.5C36.9737 56.5 36.9796 56.5 36.9856 56.5C36.9915 56.5 36.9975 56.5 37.0034 56.5C37.0094 56.5 37.0154 56.5 37.0213 56.5C37.0273 56.5 37.0332 56.5 37.0392 56.5C37.0452 56.5 37.0511 56.5 37.0571 56.5C37.0631 56.5 37.069 56.5 37.075 56.5C37.081 56.5 37.087 56.5 37.093 56.5C37.0989 56.5 37.1049 56.5 37.1109 56.5C37.1169 56.5 37.1229 56.5 37.1288 56.5C37.1348 56.5 37.1408 56.5 37.1468 56.5C37.1528 56.5 37.1588 56.5 37.1648 56.5C37.1708 56.5 37.1768 56.5 37.1828 56.5C37.1888 56.5 37.1948 56.5 37.2008 56.5C37.2068 56.5 37.2128 56.5 37.2188 56.5C37.2248 56.5 37.2308 56.5 37.2369 56.5C37.2429 56.5 37.2489 56.5 37.2549 56.5C37.2609 56.5 37.2669 56.5 37.273 56.5C37.279 56.5 37.285 56.5 37.291 56.5C37.2971 56.5 37.3031 56.5 37.3091 56.5C37.3152 56.5 37.3212 56.5 37.3272 56.5C37.3333 56.5 37.3393 56.5 37.3454 56.5C37.3514 56.5 37.3574 56.5 37.3635 56.5C37.3695 56.5 37.3756 56.5 37.3816 56.5C37.3877 56.5 37.3937 56.5 37.3998 56.5C37.4058 56.5 37.4119 56.5 37.4179 56.5C37.424 56.5 37.4301 56.5 37.4361 56.5C37.4422 56.5 37.4483 56.5 37.4543 56.5C37.4604 56.5 37.4665 56.5 37.4725 56.5C37.4786 56.5 37.4847 56.5 37.4908 56.5C37.4968 56.5 37.5029 56.5 37.509 56.5C37.5151 56.5 37.5212 56.5 37.5272 56.5C37.5333 56.5 37.5394 56.5 37.5455 56.5C37.5516 56.5 37.5577 56.5 37.5638 56.5C37.5699 56.5 37.576 56.5 37.5821 56.5C37.5882 56.5 37.5943 56.5 37.6004 56.5C37.6065 56.5 37.6126 56.5 37.6187 56.5C37.6248 56.5 37.6309 56.5 37.637 56.5C37.6431 56.5 37.6493 56.5 37.6554 56.5C37.6615 56.5 37.6676 56.5 37.6737 56.5C37.6798 56.5 37.686 56.5 37.6921 56.5C37.6982 56.5 37.7044 56.5 37.7105 56.5C37.7166 56.5 37.7227 56.5 37.7289 56.5C37.735 56.5 37.7412 56.5 37.7473 56.5C37.7534 56.5 37.7596 56.5 37.7657 56.5C37.7719 56.5 37.778 56.5 37.7842 56.5C37.7903 56.5 37.7965 56.5 37.8026 56.5C37.8088 56.5 37.8149 56.5 37.8211 56.5C37.8272 56.5 37.8334 56.5 37.8396 56.5C37.8457 56.5 37.8519 56.5 37.858 56.5C37.8642 56.5 37.8704 56.5 37.8765 56.5C37.8827 56.5 37.8889 56.5 37.8951 56.5C37.9012 56.5 37.9074 56.5 37.9136 56.5C37.9198 56.5 37.926 56.5 37.9321 56.5C37.9383 56.5 37.9445 56.5 37.9507 56.5C37.9569 56.5 37.9631 56.5 37.9693 56.5C37.9755 56.5 37.9817 56.5 37.9879 56.5C37.9941 56.5 38.0003 56.5 38.0065 56.5C38.0127 56.5 38.0189 56.5 38.0251 56.5C38.0313 56.5 38.0375 56.5 38.0437 56.5C38.0499 56.5 38.0561 56.5 38.0624 56.5C38.0686 56.5 38.0748 56.5 38.081 56.5C38.0872 56.5 38.0935 56.5 38.0997 56.5C38.1059 56.5 38.1121 56.5 38.1184 56.5C38.1246 56.5 38.1308 56.5 38.1371 56.5C38.1433 56.5 38.1495 56.5 38.1558 56.5C38.162 56.5 38.1682 56.5 38.1745 56.5C38.1807 56.5 38.187 56.5 38.1932 56.5C38.1995 56.5 38.2057 56.5 38.212 56.5C38.2182 56.5 38.2245 56.5 38.2307 56.5C38.237 56.5 38.2433 56.5 38.2495 56.5C38.2558 56.5 38.262 56.5 38.2683 56.5C38.2746 56.5 38.2808 56.5 38.2871 56.5C38.2934 56.5 38.2997 56.5 38.3059 56.5C38.3122 56.5 38.3185 56.5 38.3248 56.5C38.331 56.5 38.3373 56.5 38.3436 56.5C38.3499 56.5 38.3562 56.5 38.3625 56.5C38.3688 56.5 38.3751 56.5 38.3813 56.5C38.3876 56.5 38.3939 56.5 38.4002 56.5C38.4065 56.5 38.4128 56.5 38.4191 56.5C38.4254 56.5 38.4317 56.5 38.438 56.5C38.4444 56.5 38.4507 56.5 38.457 56.5C38.4633 56.5 38.4696 56.5 38.4759 56.5C38.4822 56.5 38.4886 56.5 38.4949 56.5C38.5012 56.5 38.5075 56.5 38.5138 56.5C38.5202 56.5 38.5265 56.5 38.5328 56.5C38.5392 56.5 38.5455 56.5 38.5518 56.5C38.5582 56.5 38.5645 56.5 38.5708 56.5C38.5772 56.5 38.5835 56.5 38.5899 56.5C38.5962 56.5 38.6025 56.5 38.6089 56.5C38.6152 56.5 38.6216 56.5 38.6279 56.5C38.6343 56.5 38.6407 56.5 38.647 56.5C38.6534 56.5 38.6597 56.5 38.6661 56.5C38.6725 56.5 38.6788 56.5 38.6852 56.5C38.6915 56.5 38.6979 56.5 38.7043 56.5C38.7107 56.5 38.717 56.5 38.7234 56.5C38.7298 56.5 38.7362 56.5 38.7425 56.5C38.7489 56.5 38.7553 56.5 38.7617 56.5C38.7681 56.5 38.7745 56.5 38.7809 56.5C38.7872 56.5 38.7936 56.5 38.8 56.5C38.8064 56.5 38.8128 56.5 38.8192 56.5C38.8256 56.5 38.832 56.5 38.8384 56.5C38.8448 56.5 38.8512 56.5 38.8576 56.5C38.864 56.5 38.8705 56.5 38.8769 56.5C38.8833 56.5 38.8897 56.5 38.8961 56.5C38.9025 56.5 38.9089 56.5 38.9154 56.5C38.9218 56.5 38.9282 56.5 38.9346 56.5C38.9411 56.5 38.9475 56.5 38.9539 56.5C38.9604 56.5 38.9668 56.5 38.9732 56.5C38.9797 56.5 38.9861 56.5 38.9925 56.5C38.999 56.5 39.0054 56.5 39.0119 56.5C39.0183 56.5 39.0248 56.5 39.0312 56.5C39.0377 56.5 39.0441 56.5 39.0506 56.5C39.057 56.5 39.0635 56.5 39.0699 56.5C39.0764 56.5 39.0828 56.5 39.0893 56.5C39.0958 56.5 39.1022 56.5 39.1087 56.5C39.1152 56.5 39.1216 56.5 39.1281 56.5C39.1346 56.5 39.1411 56.5 39.1475 56.5C39.154 56.5 39.1605 56.5 39.167 56.5C39.1735 56.5 39.1799 56.5 39.1864 56.5C39.1929 56.5 39.1994 56.5 39.2059 56.5C39.2124 56.5 39.2189 56.5 39.2254 56.5C39.2319 56.5 39.2384 56.5 39.2449 56.5C39.2514 56.5 39.2579 56.5 39.2644 56.5C39.2709 56.5 39.2774 56.5 39.2839 56.5C39.2904 56.5 39.2969 56.5 39.3034 56.5C39.3099 56.5 39.3165 56.5 39.323 56.5C39.3295 56.5 39.336 56.5 39.3425 56.5C39.3491 56.5 39.3556 56.5 39.3621 56.5C39.3687 56.5 39.3752 56.5 39.3817 56.5C39.3882 56.5 39.3948 56.5 39.4013 56.5C39.4079 56.5 39.4144 56.5 39.4209 56.5C39.4275 56.5 39.434 56.5 39.4406 56.5C39.4471 56.5 39.4537 56.5 39.4602 56.5C39.4668 56.5 39.4733 56.5 39.4799 56.5C39.4864 56.5 39.493 56.5 39.4996 56.5C39.5061 56.5 39.5127 56.5 39.5192 56.5C39.5258 56.5 39.5324 56.5 39.5389 56.5C39.5455 56.5 39.5521 56.5 39.5587 56.5C39.5652 56.5 39.5718 56.5 39.5784 56.5C39.585 56.5 39.5915 56.5 39.5981 56.5C39.6047 56.5 39.6113 56.5 39.6179 56.5C39.6245 56.5 39.6311 56.5 39.6377 56.5C39.6443 56.5 39.6509 56.5 39.6574 56.5C39.664 56.5 39.6706 56.5 39.6772 56.5C39.6839 56.5 39.6905 56.5 39.6971 56.5C39.7037 56.5 39.7103 56.5 39.7169 56.5C39.7235 56.5 39.7301 56.5 39.7367 56.5C39.7434 56.5 39.75 56.5 39.7566 56.5C39.7632 56.5 39.7698 56.5 39.7765 56.5C39.7831 56.5 39.7897 56.5 39.7963 56.5C39.803 56.5 39.8096 56.5 39.8162 56.5C39.8229 56.5 39.8295 56.5 39.8362 56.5C39.8428 56.5 39.8494 56.5 39.8561 56.5C39.8627 56.5 39.8694 56.5 39.876 56.5C39.8827 56.5 39.8893 56.5 39.896 56.5C39.9026 56.5 39.9093 56.5 39.9159 56.5C39.9226 56.5 39.9293 56.5 39.9359 56.5C39.9426 56.5 39.9493 56.5 39.9559 56.5C39.9626 56.5 39.9693 56.5 39.9759 56.5C39.9826 56.5 39.9893 56.5 39.996 56.5C40.0026 56.5 40.0093 56.5 40.016 56.5C40.0227 56.5 40.0294 56.5 40.0361 56.5C40.0427 56.5 40.0494 56.5 40.0561 56.5C40.0628 56.5 40.0695 56.5 40.0762 56.5C40.0829 56.5 40.0896 56.5 40.0963 56.5C40.103 56.5 40.1097 56.5 40.1164 56.5C40.1231 56.5 40.1298 56.5 40.1365 56.5C40.1432 56.5 40.15 56.5 40.1567 56.5C40.1634 56.5 40.1701 56.5 40.1768 56.5C40.1835 56.5 40.1903 56.5 40.197 56.5C40.2037 56.5 40.2104 56.5 40.2172 56.5C40.2239 56.5 40.2306 56.5 40.2374 56.5C40.2441 56.5 40.2508 56.5 40.2576 56.5C40.2643 56.5 40.271 56.5 40.2778 56.5C40.2845 56.5 40.2913 56.5 40.298 56.5C40.3048 56.5 40.3115 56.5 40.3183 56.5C40.325 56.5 40.3318 56.5 40.3385 56.5C40.3453 56.5 40.3521 56.5 40.3588 56.5C40.3656 56.5 40.3724 56.5 40.3791 56.5C40.3859 56.5 40.3927 56.5 40.3994 56.5C40.4062 56.5 40.413 56.5 40.4197 56.5C40.4265 56.5 40.4333 56.5 40.4401 56.5C40.4469 56.5 40.4536 56.5 40.4604 56.5C40.4672 56.5 40.474 56.5 40.4808 56.5C40.4876 56.5 40.4944 56.5 40.5012 56.5C40.508 56.5 40.5148 56.5 40.5216 56.5C40.5284 56.5 40.5352 56.5 40.542 56.5C40.5488 56.5 40.5556 56.5 40.5624 56.5C40.5692 56.5 40.576 56.5 40.5828 56.5C40.5896 56.5 40.5965 56.5 40.6033 56.5C40.6101 56.5 40.6169 56.5 40.6237 56.5C40.6306 56.5 40.6374 56.5 40.6442 56.5C40.6511 56.5 40.6579 56.5 40.6647 56.5C40.6715 56.5 40.6784 56.5 40.6852 56.5C40.6921 56.5 40.6989 56.5 40.7057 56.5C40.7126 56.5 40.7194 56.5 40.7263 56.5C40.7331 56.5 40.74 56.5 40.7468 56.5C40.7537 56.5 40.7605 56.5 40.7674 56.5C40.7742 56.5 40.7811 56.5 40.788 56.5C40.7948 56.5 40.8017 56.5 40.8086 56.5C40.8154 56.5 40.8223 56.5 40.8292 56.5C40.836 56.5 40.8429 56.5 40.8498 56.5C40.8567 56.5 40.8635 56.5 40.8704 56.5C40.8773 56.5 40.8842 56.5 40.8911 56.5C40.898 56.5 40.9048 56.5 40.9117 56.5C40.9186 56.5 40.9255 56.5 40.9324 56.5C40.9393 56.5 40.9462 56.5 40.9531 56.5C40.96 56.5 40.9669 56.5 40.9738 56.5C40.9807 56.5 40.9876 56.5 40.9945 56.5C41.0014 56.5 41.0084 56.5 41.0153 56.5C41.0222 56.5 41.0291 56.5 41.036 56.5C41.0429 56.5 41.0499 56.5 41.0568 56.5C41.0637 56.5 41.0706 56.5 41.0776 56.5C41.0845 56.5 41.0914 56.5 41.0984 56.5C41.1053 56.5 41.1122 56.5 41.1192 56.5C41.1261 56.5 41.133 56.5 41.14 56.5C41.1469 56.5 41.1539 56.5 41.1608 56.5C41.1678 56.5 41.1747 56.5 41.1817 56.5C41.1886 56.5 41.1956 56.5 41.2025 56.5C41.2095 56.5 41.2164 56.5 41.2234 56.5C41.2304 56.5 41.2373 56.5 41.2443 56.5C41.2513 56.5 41.2582 56.5 41.2652 56.5C41.2722 56.5 41.2792 56.5 41.2861 56.5C41.2931 56.5 41.3001 56.5 41.3071 56.5C41.314 56.5 41.321 56.5 41.328 56.5C41.335 56.5 41.342 56.5 41.349 56.5C41.356 56.5 41.363 56.5 41.37 56.5C41.377 56.5 41.384 56.5 41.391 56.5C41.398 56.5 41.405 56.5 41.412 56.5C41.419 56.5 41.426 56.5 41.433 56.5C41.44 56.5 41.447 56.5 41.454 56.5C41.461 56.5 41.4681 56.5 41.4751 56.5C41.4821 56.5 41.4891 56.5 41.4961 56.5C41.5032 56.5 41.5102 56.5 41.5172 56.5C41.5243 56.5 41.5313 56.5 41.5383 56.5C41.5453 56.5 41.5524 56.5 41.5594 56.5C41.5665 56.5 41.5735 56.5 41.5805 56.5C41.5876 56.5 41.5946 56.5 41.6017 56.5C41.6087 56.5 41.6158 56.5 41.6228 56.5C41.6299 56.5 41.6369 56.5 41.644 56.5C41.6511 56.5 41.6581 56.5 41.6652 56.5C41.6723 56.5 41.6793 56.5 41.6864 56.5C41.6935 56.5 41.7005 56.5 41.7076 56.5C41.7147 56.5 41.7217 56.5 41.7288 56.5C41.7359 56.5 41.743 56.5 41.7501 56.5C41.7571 56.5 41.7642 56.5 41.7713 56.5C41.7784 56.5 41.7855 56.5 41.7926 56.5C41.7997 56.5 41.8068 56.5 41.8139 56.5C41.821 56.5 41.8281 56.5 41.8352 56.5C41.8423 56.5 41.8494 56.5 41.8565 56.5C41.8636 56.5 41.8707 56.5 41.8778 56.5C41.8849 56.5 41.892 56.5 41.8991 56.5C41.9063 56.5 41.9134 56.5 41.9205 56.5C41.9276 56.5 41.9347 56.5 41.9419 56.5C41.949 56.5 41.9561 56.5 41.9633 56.5C41.9704 56.5 41.9775 56.5 41.9847 56.5C41.9918 56.5 41.9989 56.5 42.0061 56.5C42.0132 56.5 42.0204 56.5 42.0275 56.5C42.0346 56.5 42.0418 56.5 42.0489 56.5C42.0561 56.5 42.0632 56.5 42.0704 56.5C42.0776 56.5 42.0847 56.5 42.0919 56.5C42.099 56.5 42.1062 56.5 42.1134 56.5C42.1205 56.5 42.1277 56.5 42.1349 56.5C42.142 56.5 42.1492 56.5 42.1564 56.5C42.1635 56.5 42.1707 56.5 42.1779 56.5C42.1851 56.5 42.1923 56.5 42.1995 56.5C42.2066 56.5 42.2138 56.5 42.221 56.5C42.2282 56.5 42.2354 56.5 42.2426 56.5C42.2498 56.5 42.257 56.5 42.2642 56.5C42.2714 56.5 42.2786 56.5 42.2858 56.5C42.293 56.5 42.3002 56.5 42.3074 56.5C42.3146 56.5 42.3218 56.5 42.329 56.5C42.3362 56.5 42.3435 56.5 42.3507 56.5C42.3579 56.5 42.3651 56.5 42.3723 56.5C42.3796 56.5 42.3868 56.5 42.394 56.5C42.4012 56.5 42.4085 56.5 42.4157 56.5C42.4229 56.5 42.4302 56.5 42.4374 56.5C42.4447 56.5 42.4519 56.5 42.4591 56.5C42.4664 56.5 42.4736 56.5 42.4809 56.5C42.4881 56.5 42.4954 56.5 42.5026 56.5C42.5099 56.5 42.5171 56.5 42.5244 56.5C42.5316 56.5 42.5389 56.5 42.5462 56.5C42.5534 56.5 42.5607 56.5 42.568 56.5C42.5752 56.5 42.5825 56.5 42.5898 56.5C42.597 56.5 42.6043 56.5 42.6116 56.5C42.6189 56.5 42.6261 56.5 42.6334 56.5C42.6407 56.5 42.648 56.5 42.6553 56.5C42.6626 56.5 42.6699 56.5 42.6772 56.5C42.6844 56.5 42.6917 56.5 42.699 56.5C42.7063 56.5 42.7136 56.5 42.7209 56.5C42.7282 56.5 42.7355 56.5 42.7428 56.5C42.7501 56.5 42.7575 56.5 42.7648 56.5C42.7721 56.5 42.7794 56.5 42.7867 56.5C42.794 56.5 42.8013 56.5 42.8087 56.5C42.816 56.5 42.8233 56.5 42.8306 56.5C42.838 56.5 42.8453 56.5 42.8526 56.5C42.86 56.5 42.8673 56.5 42.8746 56.5C42.882 56.5 42.8893 56.5 42.8966 56.5C42.904 56.5 42.9113 56.5 42.9187 56.5C42.926 56.5 42.9334 56.5 42.9407 56.5C42.9481 56.5 42.9554 56.5 42.9628 56.5C42.9701 56.5 42.9775 56.5 42.9848 56.5C42.9922 56.5 42.9996 56.5 43.0069 56.5C43.0143 56.5 43.0217 56.5 43.029 56.5C43.0364 56.5 43.0438 56.5 43.0512 56.5C43.0585 56.5 43.0659 56.5 43.0733 56.5C43.0807 56.5 43.0881 56.5 43.0954 56.5C43.1028 56.5 43.1102 56.5 43.1176 56.5C43.125 56.5 43.1324 56.5 43.1398 56.5C43.1472 56.5 43.1546 56.5 43.162 56.5C43.1694 56.5 43.1768 56.5 43.1842 56.5C43.1916 56.5 43.199 56.5 43.2064 56.5C43.2138 56.5 43.2212 56.5 43.2286 56.5C43.2361 56.5 43.2435 56.5 43.2509 56.5C43.2583 56.5 43.2657 56.5 43.2732 56.5C43.2806 56.5 43.288 56.5 43.2954 56.5C43.3029 56.5 43.3103 56.5 43.3177 56.5C43.3252 56.5 43.3326 56.5 43.3401 56.5C43.3475 56.5 43.3549 56.5 43.3624 56.5C43.3698 56.5 43.3773 56.5 43.3847 56.5C43.3922 56.5 43.3996 56.5 43.4071 56.5C43.4145 56.5 43.422 56.5 43.4294 56.5C43.4369 56.5 43.4444 56.5 43.4518 56.5C43.4593 56.5 43.4668 56.5 43.4742 56.5C43.4817 56.5 43.4892 56.5 43.4966 56.5C43.5041 56.5 43.5116 56.5 43.5191 56.5C43.5266 56.5 43.534 56.5 43.5415 56.5C43.549 56.5 43.5565 56.5 43.564 56.5C43.5715 56.5 43.579 56.5 43.5865 56.5C43.594 56.5 43.6014 56.5 43.6089 56.5C43.6164 56.5 43.6239 56.5 43.6315 56.5C43.639 56.5 43.6465 56.5 43.654 56.5C43.6615 56.5 43.669 56.5 43.6765 56.5C43.684 56.5 43.6915 56.5 43.6991 56.5C43.7066 56.5 43.7141 56.5 43.7216 56.5C43.7291 56.5 43.7367 56.5 43.7442 56.5C43.7517 56.5 43.7593 56.5 43.7668 56.5C43.7743 56.5 43.7819 56.5 43.7894 56.5C43.7969 56.5 43.8045 56.5 43.812 56.5C43.8196 56.5 43.8271 56.5 43.8347 56.5C43.8422 56.5 43.8498 56.5 43.8573 56.5C43.8649 56.5 43.8724 56.5 43.88 56.5C43.8876 56.5 43.8951 56.5 43.9027 56.5C43.9102 56.5 43.9178 56.5 43.9254 56.5C43.9329 56.5 43.9405 56.5 43.9481 56.5C43.9557 56.5 43.9632 56.5 43.9708 56.5C43.9784 56.5 43.986 56.5 43.9936 56.5C44.0012 56.5 44.0087 56.5 44.0163 56.5C44.0239 56.5 44.0315 56.5 44.0391 56.5C44.0467 56.5 44.0543 56.5 44.0619 56.5C44.0695 56.5 44.0771 56.5 44.0847 56.5C44.0923 56.5 44.0999 56.5 44.1075 56.5C44.1151 56.5 44.1227 56.5 44.1304 56.5C44.138 56.5 44.1456 56.5 44.1532 56.5C44.1608 56.5 44.1684 56.5 44.1761 56.5C44.1837 56.5 44.1913 56.5 44.1989 56.5C44.2066 56.5 44.2142 56.5 44.2218 56.5C44.2295 56.5 44.2371 56.5 44.2448 56.5C44.2524 56.5 44.26 56.5 44.2677 56.5C44.2753 56.5 44.283 56.5 44.2906 56.5C44.2983 56.5 44.3059 56.5 44.3136 56.5C44.3212 56.5 44.3289 56.5 44.3365 56.5C44.3442 56.5 44.3519 56.5 44.3595 56.5C44.3672 56.5 44.3749 56.5 44.3825 56.5C44.3902 56.5 44.3979 56.5 44.4055 56.5C44.4132 56.5 44.4209 56.5 44.4286 56.5V53.5Z" fill="#BBBFF3"/>
</g>
</g>
<defs>
<filter id="filter0_d_14_11" x="0" y="0" width="83" height="83" filterUnits="userSpaceOnUse" color-interpolation-filters="sRGB">
<feFlood flood-opacity="0" result="BackgroundImageFix"/>
<feColorMatrix in="SourceAlpha" type="matrix" values="0 0 0 0 0 0 0 0 0 0 0 0 0 0 0 0 0 0 127 0" result="hardAlpha"/>
<feOffset/>
<feGaussianBlur stdDeviation="2"/>
<feComposite in2="hardAlpha" operator="out"/>
<feColorMatrix type="matrix" values="0 0 0 0 0 0 0 0 0 0 0 0 0 0 0 0 0 0 0.5 0"/>
<feBlend mode="normal" in2="BackgroundImageFix" result="effect1_dropShadow_14_11"/>
<feBlend mode="normal" in="SourceGraphic" in2="effect1_dropShadow_14_11" result="shape"/>
</filter>
<filter id="filter1_d_14_11" x="15.5" y="22.5" width="52" height="45.1603" filterUnits="userSpaceOnUse" color-interpolation-filters="sRGB">
<feFlood flood-opacity="0" result="BackgroundImageFix"/>
<feColorMatrix in="SourceAlpha" type="matrix" values="0 0 0 0 0 0 0 0 0 0 0 0 0 0 0 0 0 0 127 0" result="hardAlpha"/>
<feOffset/>
<feGaussianBlur stdDeviation="2"/>
<feComposite in2="hardAlpha" operator="out"/>
<feColorMatrix type="matrix" values="0 0 0 0 0 0 0 0 0 0 0 0 0 0 0 0 0 0 0.75 0"/>
<feBlend mode="normal" in2="BackgroundImageFix" result="effect1_dropShadow_14_11"/>
<feBlend mode="normal" in="SourceGraphic" in2="effect1_dropShadow_14_11" result="shape"/>
</filter>
</defs>
</svg>
